<?xml version="1.0" encoding="UTF-8"?>
<!DOCTYPE svg PUBLIC "-//W3C//DTD SVG 1.1//EN" "http://www.w3.org/Graphics/SVG/1.1/DTD/svg11.dtd">
<svg xmlns="http://www.w3.org/2000/svg" version="1.1" width="2048px" height="2048px" style="shape-rendering:geometricPrecision; text-rendering:geometricPrecision; image-rendering:optimizeQuality; fill-rule:evenodd; clip-rule:evenodd" xmlns:xlink="http://www.w3.org/1999/xlink">
<g><path style="opacity:1" fill="#fefefe" d="M -0.5,-0.5 C 149.167,-0.5 298.833,-0.5 448.5,-0.5C 294.464,4.75898 171.964,69.0923 81,192.5C 29.3222,268.037 2.15556,351.704 -0.5,443.5C -0.5,295.5 -0.5,147.5 -0.5,-0.5 Z"/></g>
<g><path style="opacity:1" fill="#182e3b" d="M 448.5,-0.5 C 830.5,-0.5 1212.5,-0.5 1594.5,-0.5C 1710.42,1.59125 1811.75,40.4246 1898.5,116C 1992.11,204.074 2041.78,312.574 2047.5,441.5C 2047.5,829.833 2047.5,1218.17 2047.5,1606.5C 2041.93,1725.77 1997.93,1828.27 1915.5,1914C 1914.91,1914.46 1914.24,1914.63 1913.5,1914.5C 1901.56,1918.11 1893.56,1925.77 1889.5,1937.5C 1823.77,1994.19 1747.77,2029.02 1661.5,2042C 1637.78,2045.25 1614.12,2047.08 1590.5,2047.5C 1207.83,2047.5 825.167,2047.5 442.5,2047.5C 316.366,2042 209.532,1994.33 122,1904.5C 43.3327,1818.46 2.49933,1716.79 -0.5,1599.5C -0.5,1214.17 -0.5,828.833 -0.5,443.5C 2.15556,351.704 29.3222,268.037 81,192.5C 171.964,69.0923 294.464,4.75898 448.5,-0.5 Z"/></g>
<g><path style="opacity:1" fill="#fefefe" d="M 1594.5,-0.5 C 1745.5,-0.5 1896.5,-0.5 2047.5,-0.5C 2047.5,146.833 2047.5,294.167 2047.5,441.5C 2041.78,312.574 1992.11,204.074 1898.5,116C 1811.75,40.4246 1710.42,1.59125 1594.5,-0.5 Z"/></g>
<g><path style="opacity:1" fill="#fefefe" d="M 792.5,997.5 C 792.17,1016.67 792.503,1035.67 793.5,1054.5C 794.389,1103.06 801.056,1150.72 813.5,1197.5C 813.41,1200.15 814.076,1202.49 815.5,1204.5C 831.221,1258.23 858.887,1304.73 898.5,1344C 954.826,1392.63 1020.49,1418.3 1095.5,1421C 1121.21,1421.93 1146.88,1421.43 1172.5,1419.5C 1177.12,1419.84 1181.46,1419.18 1185.5,1417.5C 1205.18,1415.07 1224.51,1411.07 1243.5,1405.5C 1246.15,1405.59 1248.49,1404.92 1250.5,1403.5C 1310.36,1383.91 1362.69,1352.08 1407.5,1308C 1417.44,1295.73 1428.44,1284.39 1440.5,1274C 1451.03,1269.65 1460.7,1270.98 1469.5,1278C 1515.25,1321.75 1560.42,1366.25 1605,1411.5C 1612.17,1419.83 1613.17,1428.83 1608,1438.5C 1588.24,1464.26 1565.74,1487.43 1540.5,1508C 1452.13,1578.82 1351.46,1622.49 1238.5,1639C 1107.02,1658.49 978.687,1646.82 853.5,1604C 778.686,1576.18 711.686,1535.51 652.5,1482C 568.803,1401.09 515.137,1303.09 491.5,1188C 471.74,1089.7 470.407,991.204 487.5,892.5C 488.924,890.485 489.59,888.152 489.5,885.5C 526.063,711.781 621.396,580.947 775.5,493C 830.765,463.411 889.099,442.245 950.5,429.5C 953.495,429.706 956.162,429.04 958.5,427.5C 980.078,423.626 1001.75,420.293 1023.5,417.5C 1030.05,417.546 1036.38,416.879 1042.5,415.5C 1176.23,403.151 1304.9,422.984 1428.5,475C 1473.52,495.551 1515.85,520.551 1555.5,550C 1559.05,553.329 1561.88,557.163 1564,561.5C 1567.09,630.308 1569.59,699.141 1571.5,768C 1571.6,773.913 1571.1,779.746 1570,785.5C 1566.71,791.57 1561.54,794.736 1554.5,795C 1496.31,799.732 1438.14,804.566 1380,809.5C 1370.02,809.686 1363.69,805.019 1361,795.5C 1354.77,762.507 1348.6,729.507 1342.5,696.5C 1306.83,672.098 1267.83,654.931 1225.5,645C 1154.58,628.788 1083.91,629.788 1013.5,648C 925.578,674.247 863.745,729.747 828,814.5C 805.466,873.341 793.632,934.341 792.5,997.5 Z"/></g>
<g><path style="opacity:1" fill="#9ba5ac" d="M 1042.5,415.5 C 1036.38,416.879 1030.05,417.546 1023.5,417.5C 1029.62,416.121 1035.95,415.454 1042.5,415.5 Z"/></g>
<g><path style="opacity:1" fill="#939ea2" d="M 958.5,427.5 C 956.162,429.04 953.495,429.706 950.5,429.5C 952.905,428.232 955.572,427.565 958.5,427.5 Z"/></g>
<g><path style="opacity:1" fill="#848d94" d="M 489.5,885.5 C 489.59,888.152 488.924,890.485 487.5,892.5C 487.41,889.848 488.076,887.515 489.5,885.5 Z"/></g>
<g><path style="opacity:1" fill="#34464d" d="M 792.5,997.5 C 793.608,1005.14 794.274,1012.98 794.5,1021C 793.764,1032.16 793.431,1043.32 793.5,1054.5C 792.503,1035.67 792.17,1016.67 792.5,997.5 Z"/></g>
<g><path style="opacity:1" fill="#9faaaf" d="M 813.5,1197.5 C 814.924,1199.51 815.59,1201.85 815.5,1204.5C 814.076,1202.49 813.41,1200.15 813.5,1197.5 Z"/></g>
<g><path style="opacity:1" fill="#9ca9af" d="M 1250.5,1403.5 C 1248.49,1404.92 1246.15,1405.59 1243.5,1405.5C 1245.51,1404.08 1247.85,1403.41 1250.5,1403.5 Z"/></g>
<g><path style="opacity:1" fill="#96a0a6" d="M 1185.5,1417.5 C 1181.46,1419.18 1177.12,1419.84 1172.5,1419.5C 1176.64,1418.44 1180.97,1417.77 1185.5,1417.5 Z"/></g>
<g><path style="opacity:1" fill="#fefefe" d="M -0.5,1599.5 C 2.49933,1716.79 43.3327,1818.46 122,1904.5C 209.532,1994.33 316.366,2042 442.5,2047.5C 294.833,2047.5 147.167,2047.5 -0.5,2047.5C -0.5,1898.17 -0.5,1748.83 -0.5,1599.5 Z"/></g>
<g><path style="opacity:1" fill="#fefefe" d="M 2047.5,1606.5 C 2047.5,1753.5 2047.5,1900.5 2047.5,2047.5C 1895.17,2047.5 1742.83,2047.5 1590.5,2047.5C 1614.12,2047.08 1637.78,2045.25 1661.5,2042C 1747.77,2029.02 1823.77,1994.19 1889.5,1937.5C 1898.39,1930.73 1906.39,1923.06 1913.5,1914.5C 1914.24,1914.63 1914.91,1914.46 1915.5,1914C 1997.93,1828.27 2041.93,1725.77 2047.5,1606.5 Z"/></g>
<g><path style="opacity:1" fill="#808c91" d="M 1913.5,1914.5 C 1906.39,1923.06 1898.39,1930.73 1889.5,1937.5C 1893.56,1925.77 1901.56,1918.11 1913.5,1914.5 Z"/></g>
</svg>
