<?xml version="1.0" encoding="UTF-8"?>
<!DOCTYPE svg PUBLIC "-//W3C//DTD SVG 1.1//EN" "http://www.w3.org/Graphics/SVG/1.1/DTD/svg11.dtd">
<svg xmlns="http://www.w3.org/2000/svg" version="1.1" width="1016px" height="217px" style="shape-rendering:geometricPrecision; text-rendering:geometricPrecision; image-rendering:optimizeQuality; fill-rule:evenodd; clip-rule:evenodd" xmlns:xlink="http://www.w3.org/1999/xlink">
<g><path style="opacity:0.008" fill="#244166" d="M 242.5,4.5 C 243.833,5.16667 243.833,5.16667 242.5,4.5 Z"/></g>
<g><path style="opacity:0.004" fill="#234062" d="M 696.5,4.5 C 697.833,5.16667 697.833,5.16667 696.5,4.5 Z"/></g>
<g><path style="opacity:0.004" fill="#1f3e62" d="M 888.5,8.5 C 889.833,9.16667 889.833,9.16667 888.5,8.5 Z"/></g>
<g><path style="opacity:0.004" fill="#1f3c66" d="M 837.5,10.5 C 838.833,11.1667 838.833,11.1667 837.5,10.5 Z"/></g>
<g><path style="opacity:0.004" fill="#204069" d="M 242.5,12.5 C 243.833,13.1667 243.833,13.1667 242.5,12.5 Z"/></g>
<g><path style="opacity:0.008" fill="#1f3e64" d="M 696.5,12.5 C 697.833,13.1667 697.833,13.1667 696.5,12.5 Z"/></g>
<g><path style="opacity:0.004" fill="#234065" d="M 937.5,14.5 C 938.833,15.1667 938.833,15.1667 937.5,14.5 Z"/></g>
<g><path style="opacity:0.004" fill="#1b3d66" d="M 696.5,20.5 C 697.833,21.1667 697.833,21.1667 696.5,20.5 Z"/></g>
<g><path style="opacity:0.004" fill="#163b6d" d="M 242.5,28.5 C 243.833,29.1667 243.833,29.1667 242.5,28.5 Z"/></g>
<g><path style="opacity:0.004" fill="#173d67" d="M 696.5,28.5 C 697.833,29.1667 697.833,29.1667 696.5,28.5 Z"/></g>
<g><path style="opacity:0.004" fill="#11376d" d="M 240.5,32.5 C 241.833,33.1667 241.833,33.1667 240.5,32.5 Z"/></g>
<g><path style="opacity:0.004" fill="#11376b" d="M 383.5,32.5 C 384.833,33.1667 384.833,33.1667 383.5,32.5 Z"/></g>
<g><path style="opacity:0.004" fill="#12376e" d="M 74.5,33.5 C 75.8333,34.1667 75.8333,34.1667 74.5,33.5 Z"/></g>
<g><path style="opacity:0.004" fill="#0d376e" d="M 217.5,33.5 C 218.833,34.1667 218.833,34.1667 217.5,33.5 Z"/></g>
<g><path style="opacity:0.008" fill="#0f3872" d="M 419.5,33.5 C 420.833,34.1667 420.833,34.1667 419.5,33.5 Z"/></g>
<g><path style="opacity:0.008" fill="#0e3870" d="M 421.5,33.5 C 422.833,34.1667 422.833,34.1667 421.5,33.5 Z"/></g>
<g><path style="opacity:0.004" fill="#10356d" d="M 499.5,33.5 C 500.833,34.1667 500.833,34.1667 499.5,33.5 Z"/></g>
<g><path style="opacity:0.008" fill="#12376c" d="M 515.5,33.5 C 516.833,34.1667 516.833,34.1667 515.5,33.5 Z"/></g>
<g><path style="opacity:0.004" fill="#10376a" d="M 564.5,33.5 C 565.833,34.1667 565.833,34.1667 564.5,33.5 Z"/></g>
<g><path style="opacity:0.004" fill="#13386b" d="M 671.5,34.5 C 671.897,33.475 672.563,33.3083 673.5,34C 672.906,34.4643 672.239,34.631 671.5,34.5 Z"/></g>
<g><path style="opacity:0.012" fill="#0e3871" d="M 792.5,33.5 C 793.833,34.1667 793.833,34.1667 792.5,33.5 Z"/></g>
<g><path style="opacity:0.008" fill="#0e376f" d="M 809.5,33.5 C 810.833,34.1667 810.833,34.1667 809.5,33.5 Z"/></g>
<g><path style="opacity:0.004" fill="#0e356e" d="M 817.5,33.5 C 818.833,34.1667 818.833,34.1667 817.5,33.5 Z"/></g>
<g><path style="opacity:0.008" fill="#10376f" d="M 837.5,34.5 C 836.761,34.631 836.094,34.4643 835.5,34C 836.437,33.3083 837.103,33.475 837.5,34.5 Z"/></g>
<g><path style="opacity:0.012" fill="#11346c" d="M 839.5,33.5 C 840.833,34.1667 840.833,34.1667 839.5,33.5 Z"/></g>
<g><path style="opacity:0.004" fill="#0f336e" d="M 841.5,33.5 C 842.833,34.1667 842.833,34.1667 841.5,33.5 Z"/></g>
<g><path style="opacity:0.004" fill="#0f366d" d="M 888.5,33.5 C 889.833,34.1667 889.833,34.1667 888.5,33.5 Z"/></g>
<g><path style="opacity:0.004" fill="#13376c" d="M 980.5,33.5 C 981.833,34.1667 981.833,34.1667 980.5,33.5 Z"/></g>
<g><path style="opacity:0.008" fill="#12396a" d="M 745.5,34.5 C 746.833,35.1667 746.833,35.1667 745.5,34.5 Z"/></g>
<g><path style="opacity:0.18" fill="#0d3972" d="M 381.5,36.5 C 350.833,36.5 320.167,36.5 289.5,36.5C 289.369,35.7611 289.536,35.0944 290,34.5C 319.76,35.4954 349.593,35.8288 379.5,35.5C 379.351,34.448 379.517,33.448 380,32.5C 380.41,33.9007 380.91,35.234 381.5,36.5 Z"/></g>
<g><path style="opacity:0.18" fill="#0e3a73" d="M 426.5,36.5 C 414.12,35.8542 402.12,36.5209 390.5,38.5C 390.5,38.8333 390.5,39.1667 390.5,39.5C 390.167,39.5 389.833,39.5 389.5,39.5C 389.5,38.1667 389.5,36.8333 389.5,35.5C 391.451,35.7733 392.951,35.1066 394,33.5C 404.757,35.1416 415.59,36.1416 426.5,36.5 Z"/></g>
<g><path style="opacity:0.201" fill="#0e3972" d="M 564.5,34.5 C 564.833,35.1667 565.167,35.8333 565.5,36.5C 558.745,36.2066 552.078,36.5399 545.5,37.5C 551.496,35.7924 557.829,34.7924 564.5,34.5 Z"/></g>
<g><path style="opacity:0.145" fill="#0d3872" d="M 837.5,34.5 C 839.042,35.3007 840.708,35.634 842.5,35.5C 842.189,42.0898 842.522,48.5898 843.5,55C 842.906,55.4643 842.239,55.631 841.5,55.5C 841.5,50.1667 841.5,44.8333 841.5,39.5C 841.5,38.8333 841.5,38.1667 841.5,37.5C 811.005,36.5019 780.338,36.1685 749.5,36.5C 778.833,35.8333 808.167,35.1667 837.5,34.5 Z"/></g>
<g><path style="opacity:0.965" fill="#051739" d="M 137.5,48.5 C 138.11,49.391 138.443,50.391 138.5,51.5C 138.167,51.5 137.833,51.5 137.5,51.5C 127.785,43.868 116.785,39.0347 104.5,37C 85.3575,33.662 67.6908,37.162 51.5,47.5C 51.5,46.8333 51.1667,46.5 50.5,46.5C 53.1667,44.5 55.8333,42.5 58.5,40.5C 76.9973,33.7712 95.8306,32.7712 115,37.5C 122.811,39.8184 130.311,43.4851 137.5,48.5 Z"/></g>
<g><path style="opacity:0.98" fill="#000218" d="M 222.5,36.5 C 201.5,37.1667 180.5,37.8333 159.5,38.5C 159.167,38.5 158.833,38.5 158.5,38.5C 179.474,36.5112 200.807,35.8445 222.5,36.5 Z"/></g>
<g><path style="opacity:0.983" fill="#03051a" d="M 289.5,36.5 C 320.167,36.5 350.833,36.5 381.5,36.5C 380.289,42.3101 380.289,47.9767 381.5,53.5C 381.539,54.7562 381.039,55.7562 380,56.5C 361.243,55.5073 342.41,55.174 323.5,55.5C 323.5,55.1667 323.5,54.8333 323.5,54.5C 342.167,54.5 360.833,54.5 379.5,54.5C 379.5,48.8333 379.5,43.1667 379.5,37.5C 349.995,37.1686 320.662,37.5019 291.5,38.5C 290.17,84.2643 290.17,129.931 291.5,175.5C 321.995,176.498 352.662,176.831 383.5,176.5C 384.167,176.5 384.833,176.5 385.5,176.5C 385.5,176.833 385.5,177.167 385.5,177.5C 354.329,177.169 323.329,177.502 292.5,178.5C 290.77,179.976 289.437,179.642 288.5,177.5C 289.64,131.158 289.64,85.1581 288.5,39.5C 289.404,38.791 289.737,37.791 289.5,36.5 Z"/></g>
<g><path style="opacity:0.983" fill="#000119" d="M 426.5,36.5 C 426.672,37.4916 426.338,38.1583 425.5,38.5C 413.961,37.1993 402.295,37.1993 390.5,38.5C 402.12,36.5209 414.12,35.8542 426.5,36.5 Z"/></g>
<g><path style="opacity:0.98" fill="#02041a" d="M 565.5,36.5 C 566.338,36.8417 566.672,37.5084 566.5,38.5C 566.672,39.4916 566.338,40.1583 565.5,40.5C 565.586,39.5041 565.252,38.6708 564.5,38C 558.804,37.1701 553.137,37.3368 547.5,38.5C 547.137,39.1835 546.804,39.8501 546.5,40.5C 545.662,40.1583 545.328,39.4916 545.5,38.5C 545.5,38.1667 545.5,37.8333 545.5,37.5C 552.078,36.5399 558.745,36.2066 565.5,36.5 Z"/></g>
<g><path style="opacity:0.004" fill="#153b6a" d="M 696.5,36.5 C 697.833,37.1667 697.833,37.1667 696.5,36.5 Z"/></g>
<g><path style="opacity:0.978" fill="#000219" d="M 749.5,36.5 C 780.338,36.1685 811.005,36.5019 841.5,37.5C 811.167,37.5 780.833,37.5 750.5,37.5C 750.5,40.1667 750.5,42.8333 750.5,45.5C 750.167,45.5 749.833,45.5 749.5,45.5C 749.5,42.5 749.5,39.5 749.5,36.5 Z"/></g>
<g><path style="opacity:0.008" fill="#11376c" d="M 956.5,36.5 C 957.833,37.1667 957.833,37.1667 956.5,36.5 Z"/></g>
<g><path style="opacity:0.008" fill="#0c356f" d="M 156.5,37.5 C 155.833,38.1667 155.833,38.1667 156.5,37.5 Z"/></g>
<g><path style="opacity:0.969" fill="#001c54" d="M 841.5,37.5 C 841.5,38.1667 841.5,38.8333 841.5,39.5C 840.513,44.3054 840.179,49.3054 840.5,54.5C 821.5,54.5 802.5,54.5 783.5,54.5C 783.167,54.5 782.833,54.5 782.5,54.5C 801.326,53.503 820.326,53.1697 839.5,53.5C 839.5,48.5 839.5,43.5 839.5,38.5C 810.167,38.5 780.833,38.5 751.5,38.5C 751.5,42.1667 751.5,45.8333 751.5,49.5C 751.5,91.8333 751.5,134.167 751.5,176.5C 750.501,133.003 750.168,89.3365 750.5,45.5C 750.5,42.8333 750.5,40.1667 750.5,37.5C 780.833,37.5 811.167,37.5 841.5,37.5 Z"/></g>
<g><path style="opacity:0.008" fill="#0e3369" d="M 288.5,39.5 C 287.833,38.1667 287.833,38.1667 288.5,39.5 Z"/></g>
<g><path style="opacity:0.02" fill="#11356b" d="M 383.5,38.5 C 384.833,39.1667 384.833,39.1667 383.5,38.5 Z"/></g>
<g><path style="opacity:0.997" fill="#002561" d="M 565.5,40.5 C 574.14,60.7696 582.473,81.1029 590.5,101.5C 589.791,102.404 588.791,102.737 587.5,102.5C 587.02,105.685 587.686,108.519 589.5,111C 586.216,115.235 586.216,119.235 589.5,123C 585.989,124.636 585.656,125.803 588.5,126.5C 587.349,127.731 586.183,127.731 585,126.5C 584.308,127.025 583.808,127.692 583.5,128.5C 584.98,129.113 586.313,129.446 587.5,129.5C 585.5,130.167 583.5,130.833 581.5,131.5C 582.242,132.287 583.075,132.953 584,133.5C 582.996,137.653 584.163,138.32 587.5,135.5C 587.833,135.833 588.167,136.167 588.5,136.5C 587.894,138.709 587.227,140.876 586.5,143C 587.167,143.333 587.833,143.667 588.5,144C 587.672,146.464 586.672,148.964 585.5,151.5C 584.28,151.113 583.613,150.28 583.5,149C 585.198,148.303 586.198,146.969 586.5,145C 585.672,144.085 584.672,143.419 583.5,143C 584.167,142.667 584.833,142.333 585.5,142C 584.044,141.577 583.544,140.744 584,139.5C 584.654,140.696 585.154,140.696 585.5,139.5C 584.271,138.719 582.938,138.219 581.5,138C 582.711,137.107 582.711,136.274 581.5,135.5C 580.914,135.709 580.414,136.043 580,136.5C 579.289,134.101 579.456,131.768 580.5,129.5C 580.021,127.111 578.688,125.444 576.5,124.5C 573.833,125.833 573.833,127.167 576.5,128.5C 577.192,127.975 577.692,127.308 578,126.5C 578.667,128.5 578.667,130.5 578,132.5C 577.333,128.5 576.667,128.5 576,132.5C 575.374,130.009 574.541,130.009 573.5,132.5C 572.396,130.611 571.063,128.945 569.5,127.5C 568.818,128.243 568.151,128.909 567.5,129.5C 562.625,115.413 557.459,101.413 552,87.5C 551.517,88.448 551.351,89.448 551.5,90.5C 550.857,88.9236 549.857,87.5903 548.5,86.5C 548.414,85.5041 548.748,84.6708 549.5,84C 548.517,83.4092 547.85,83.7425 547.5,85C 545.767,90.0549 543.767,94.8883 541.5,99.5C 541.631,98.7611 541.464,98.0944 541,97.5C 539.71,99.792 538.043,101.792 536,103.5C 536.617,101.905 536.284,100.572 535,99.5C 533.667,99.5 532.333,99.5 531,99.5C 528.904,98.2845 529.071,97.4512 531.5,97C 529.579,96.6397 527.912,95.8064 526.5,94.5C 530.082,93.2428 530.749,91.4094 528.5,89C 529.167,87.6667 530.167,86.6667 531.5,86C 530.244,85.5831 529.577,84.7498 529.5,83.5C 531.434,77.3663 533.768,71.3663 536.5,65.5C 536.03,64.537 535.363,64.537 534.5,65.5C 534.66,63.847 535.326,62.5137 536.5,61.5C 536.721,64.0972 537.221,64.0972 538,61.5C 540.849,54.4743 543.682,47.4743 546.5,40.5C 546.804,39.8501 547.137,39.1835 547.5,38.5C 553.137,37.3368 558.804,37.1701 564.5,38C 565.252,38.6708 565.586,39.5041 565.5,40.5 Z"/></g>
<g><path style="opacity:0.004" fill="#0f356c" d="M 674.5,38.5 C 675.833,39.1667 675.833,39.1667 674.5,38.5 Z"/></g>
<g><path style="opacity:0.997" fill="#002461" d="M 863.5,38.5 C 875.5,37.1667 887.5,37.1667 899.5,38.5C 919.448,66.9542 939.614,95.2876 960,123.5C 960.195,122.181 960.028,120.847 959.5,119.5C 959.175,111.981 959.508,104.648 960.5,97.5C 961.831,92.8851 962.165,73.5517 961.5,39.5C 967.75,37.5411 974.416,36.8745 981.5,37.5C 981.5,83.5 981.5,129.5 981.5,175.5C 981.5,175.833 981.5,176.167 981.5,176.5C 973.804,176.831 966.138,176.497 958.5,175.5C 934.496,142.177 910.163,109.177 885.5,76.5C 885.44,75.9569 885.107,75.6236 884.5,75.5C 883.5,108.827 883.167,142.16 883.5,175.5C 882.668,142.669 882.168,109.669 882,76.5C 881.577,77.9561 880.744,78.4561 879.5,78C 882.121,75.9283 882.788,73.4283 881.5,70.5C 880.284,71.0016 879.117,71.3349 878,71.5C 877.333,68.8333 876.667,68.8333 876,71.5C 875.5,70.5 875,69.5 874.5,68.5C 879.462,66.2704 879.129,64.437 873.5,63C 875.878,62.0255 875.544,61.3589 872.5,61C 873.646,60.3551 874.646,59.5217 875.5,58.5C 876.812,59.4604 878.146,59.2937 879.5,58C 877.817,55.9864 875.817,54.3198 873.5,53C 874.138,51.2933 874.138,49.46 873.5,47.5C 876.907,47.8747 877.407,46.8747 875,44.5C 874.667,44.8333 874.333,45.1667 874,45.5C 873.691,44.2341 873.191,43.0674 872.5,42C 874.224,41.5518 874.891,40.7185 874.5,39.5C 875.478,39.9767 876.311,40.6433 877,41.5C 877.604,39.3143 878.77,39.1476 880.5,41C 878.431,41.3242 878.098,42.1575 879.5,43.5C 878.975,44.1924 878.308,44.6924 877.5,45C 879.108,45.658 880.275,45.158 881,43.5C 881.324,45.5689 882.158,45.9023 883.5,44.5C 884.167,45.1667 884.833,45.8333 885.5,46.5C 887.167,45.6667 888.833,44.8333 890.5,44C 890.167,43.6667 889.833,43.3333 889.5,43C 887.328,42.2763 884.994,41.7763 882.5,41.5C 881.396,40.3687 881.729,39.5354 883.5,39C 876.842,38.5004 870.175,38.3337 863.5,38.5 Z"/></g>
<g><path style="opacity:0.008" fill="#13376a" d="M 984.5,38.5 C 985.833,39.1667 985.833,39.1667 984.5,38.5 Z"/></g>
<g><path style="opacity:0.004" fill="#0f376e" d="M 58.5,40.5 C 57.8333,39.1667 57.8333,39.1667 58.5,40.5 Z"/></g>
<g><path style="opacity:0.997" fill="#002561" d="M 229.5,37.5 C 228.127,37.3433 226.793,37.51 225.5,38C 232.309,39.496 238.976,41.496 245.5,44C 248.787,45.4675 251.454,47.6341 253.5,50.5C 251.983,50.4894 250.816,49.8228 250,48.5C 248.984,49.6341 248.317,49.3008 248,47.5C 247.667,47.8333 247.333,48.1667 247,48.5C 244.141,45.2772 240.641,43.4439 236.5,43C 235.313,44.0195 234.313,45.1861 233.5,46.5C 235.387,47.6656 237.053,48.3322 238.5,48.5C 237.5,50.1667 236.167,51.5 234.5,52.5C 235.04,53.7481 235.707,54.9148 236.5,56C 235.366,57.016 235.699,57.6827 237.5,58C 236.167,58.6667 235.167,59.6667 234.5,61C 235.961,63.5821 235.294,65.4154 232.5,66.5C 230.644,61.2159 226.978,57.7159 221.5,56C 212.234,54.6137 202.9,54.1137 193.5,54.5C 192.504,54.4142 191.671,54.7476 191,55.5C 190.333,72.5 190.333,89.5 191,106.5C 194.394,107.456 197.894,107.789 201.5,107.5C 200.708,109.257 199.375,110.591 197.5,111.5C 198.229,113.595 197.563,115.428 195.5,117C 195.966,118.299 195.966,119.799 195.5,121.5C 197.75,121.819 199.75,121.319 201.5,120C 200.874,119.25 200.374,118.416 200,117.5C 199.107,118.711 198.274,118.711 197.5,117.5C 198.167,116.167 199.167,115.167 200.5,114.5C 202.367,117.396 202.701,120.396 201.5,123.5C 198.167,123.5 194.833,123.5 191.5,123.5C 191.5,124.5 191.5,125.5 191.5,126.5C 190.503,142.992 190.17,159.658 190.5,176.5C 180.167,176.5 169.833,176.5 159.5,176.5C 159.5,130.5 159.5,84.5 159.5,38.5C 180.5,37.8333 201.5,37.1667 222.5,36.5C 223.117,36.3893 223.617,36.056 224,35.5C 225.948,36.1094 227.782,36.776 229.5,37.5 Z"/></g>
<g><path style="opacity:0.004" fill="#08316c" d="M 389.5,39.5 C 388.833,40.1667 388.833,40.1667 389.5,39.5 Z"/></g>
<g><path style="opacity:0.998" fill="#002561" d="M 863.5,38.5 C 870.175,38.3337 876.842,38.5004 883.5,39C 881.729,39.5354 881.396,40.3687 882.5,41.5C 884.994,41.7763 887.328,42.2763 889.5,43C 889.833,43.3333 890.167,43.6667 890.5,44C 888.833,44.8333 887.167,45.6667 885.5,46.5C 884.833,45.8333 884.167,45.1667 883.5,44.5C 882.158,45.9023 881.324,45.5689 881,43.5C 880.275,45.158 879.108,45.658 877.5,45C 878.308,44.6924 878.975,44.1924 879.5,43.5C 878.098,42.1575 878.431,41.3242 880.5,41C 878.77,39.1476 877.604,39.3143 877,41.5C 876.311,40.6433 875.478,39.9767 874.5,39.5C 874.891,40.7185 874.224,41.5518 872.5,42C 873.191,43.0674 873.691,44.2341 874,45.5C 874.333,45.1667 874.667,44.8333 875,44.5C 877.407,46.8747 876.907,47.8747 873.5,47.5C 874.138,49.46 874.138,51.2933 873.5,53C 875.817,54.3198 877.817,55.9864 879.5,58C 878.146,59.2937 876.812,59.4604 875.5,58.5C 874.646,59.5217 873.646,60.3551 872.5,61C 875.544,61.3589 875.878,62.0255 873.5,63C 879.129,64.437 879.462,66.2704 874.5,68.5C 875,69.5 875.5,70.5 876,71.5C 876.667,68.8333 877.333,68.8333 878,71.5C 879.117,71.3349 880.284,71.0016 881.5,70.5C 882.788,73.4283 882.121,75.9283 879.5,78C 880.744,78.4561 881.577,77.9561 882,76.5C 882.168,109.669 882.668,142.669 883.5,175.5C 877.021,176.491 870.354,176.824 863.5,176.5C 863.5,175.5 863.5,174.5 863.5,173.5C 863.5,128.5 863.5,83.5 863.5,38.5 Z"/></g>
<g><path style="opacity:0.004" fill="#08316a" d="M 635.5,40.5 C 636.833,41.1667 636.833,41.1667 635.5,40.5 Z"/></g>
<g><path style="opacity:0.576" fill="#042150" d="M 222.5,36.5 C 200.807,35.8445 179.474,36.5112 158.5,38.5C 158.832,84.6697 158.499,130.67 157.5,176.5C 158.132,164.746 157.465,153.246 155.5,142C 156.98,140.701 157.646,139.034 157.5,137C 157.194,120.817 156.861,104.65 156.5,88.5C 157.084,71.8746 157.084,54.8746 156.5,37.5C 156.611,36.8826 156.944,36.3826 157.5,36C 179.337,35.1705 201.004,35.3372 222.5,36.5 Z"/></g>
<g><path style="opacity:0.708" fill="#052351" d="M 381.5,36.5 C 382.719,42.0608 382.719,47.7275 381.5,53.5C 380.289,47.9767 380.289,42.3101 381.5,36.5 Z"/></g>
<g><path style="opacity:0.004" fill="#11376a" d="M 696.5,44.5 C 697.833,45.1667 697.833,45.1667 696.5,44.5 Z"/></g>
<g><path style="opacity:0.997" fill="#002460" d="M 291.5,38.5 C 302.172,38.3335 312.839,38.5002 323.5,39C 321.236,39.2362 319.069,39.7362 317,40.5C 315.442,39.6548 314.442,40.3215 314,42.5C 313.667,42.1667 313.333,41.8333 313,41.5C 313.077,42.7376 312.911,43.7376 312.5,44.5C 310.189,43.7865 308.022,42.7865 306,41.5C 304.956,42.6226 304.29,43.9559 304,45.5C 300.535,41.3317 300.035,41.4984 302.5,46C 301.67,47.4651 301.504,48.9651 302,50.5C 303.171,49.1068 304.671,48.2735 306.5,48C 304.314,47.3964 304.148,46.2297 306,44.5C 307.067,45.1905 308.234,45.6905 309.5,46C 307.109,46.6914 307.109,47.6914 309.5,49C 307.926,49.353 306.259,50.0196 304.5,51C 307.276,52.7787 306.943,53.7787 303.5,54C 304,54.5 304.5,55 305,55.5C 306.337,54.2351 307.837,53.7351 309.5,54C 308.833,54.6667 308.167,55.3333 307.5,56C 308.105,57.8269 309.772,59.1603 312.5,60C 311.663,61.0113 311.33,62.1779 311.5,63.5C 309.799,63.0338 308.299,63.0338 307,63.5C 306.174,61.5946 305.007,61.2612 303.5,62.5C 304.891,62.1086 305.891,62.9419 306.5,65C 304.765,68.4666 302.765,71.7999 300.5,75C 301.469,76.7583 302.636,77.2583 304,76.5C 303.594,78.8703 303.428,81.2036 303.5,83.5C 304.025,84.1924 304.692,84.6924 305.5,85C 304.483,86.0495 304.316,87.2161 305,88.5C 305.5,87.3333 306.333,86.5 307.5,86C 307.167,85.6667 306.833,85.3333 306.5,85C 309.296,82.6936 311.463,83.1936 313,86.5C 313.667,83.8333 314.333,83.8333 315,86.5C 315.814,88.9018 315.647,91.2351 314.5,93.5C 312.157,90.0737 309.824,89.907 307.5,93C 308.28,94.073 308.113,95.2396 307,96.5C 305.334,95.6598 305.167,96.1598 306.5,98C 305.636,99.1369 304.636,100.47 303.5,102C 304.793,102.49 306.127,102.657 307.5,102.5C 307.708,104.92 307.374,107.253 306.5,109.5C 306.846,110.696 307.346,110.696 308,109.5C 308.034,111.18 308.201,112.68 308.5,114C 307.167,114 305.833,114 304.5,114C 306.167,115 307.5,116.333 308.5,118C 307.833,118.333 307.167,118.667 306.5,119C 309.763,119.869 310.096,121.203 307.5,123C 309.194,124.728 310.361,124.228 311,121.5C 312.583,123.699 312.75,126.032 311.5,128.5C 314.999,128.259 315.332,129.092 312.5,131C 312.833,131.333 313.167,131.667 313.5,132C 311.802,134.474 309.802,135.808 307.5,136C 308.833,138.984 310.667,139.151 313,136.5C 313.14,138.256 312.64,139.922 311.5,141.5C 312.025,142.192 312.692,142.692 313.5,143C 311.382,143.26 309.716,144.26 308.5,146C 309.5,146.333 310.5,146.667 311.5,147C 310.529,148.204 309.529,148.704 308.5,148.5C 309.09,149.799 310.09,150.632 311.5,151C 309.983,152.685 308.316,154.185 306.5,155.5C 307.752,157.001 308.752,158.668 309.5,160.5C 308.443,160.906 307.109,160.906 305.5,160.5C 305.5,161.833 305.5,163.167 305.5,164.5C 301.724,164.469 301.557,165.136 305,166.5C 307.545,165.526 309.711,164.359 311.5,163C 309.672,166.191 307.005,168.524 303.5,170C 307.068,174.25 308.901,174.417 309,170.5C 310.332,172.936 311.499,172.936 312.5,170.5C 309.95,167.255 310.617,166.755 314.5,169C 313.167,170 313.167,171 314.5,172C 310.506,173.46 310.506,174.627 314.5,175.5C 306.833,175.5 299.167,175.5 291.5,175.5C 290.17,129.931 290.17,84.2643 291.5,38.5 Z"/></g>
<g><path style="opacity:0.004" fill="#07316b" d="M 635.5,46.5 C 636.833,47.1667 636.833,47.1667 635.5,46.5 Z"/></g>
<g><path style="opacity:0.01" fill="#0b346d" d="M 46.5,48.5 C 45.7611,48.631 45.0944,48.4643 44.5,48C 45.4368,47.3083 46.1034,47.475 46.5,48.5 Z"/></g>
<g><path style="opacity:0.008" fill="#09336b" d="M 137.5,47.5 C 138.833,48.1667 138.833,48.1667 137.5,47.5 Z"/></g>
<g><path style="opacity:0.004" fill="#0f336e" d="M 264.5,48.5 C 265.833,49.1667 265.833,49.1667 264.5,48.5 Z"/></g>
<g><path style="opacity:0.004" fill="#12356b" d="M 696.5,48.5 C 697.833,49.1667 697.833,49.1667 696.5,48.5 Z"/></g>
<g><path style="opacity:1" fill="#06122f" d="M 545.5,38.5 C 545.328,39.4916 545.662,40.1583 546.5,40.5C 543.682,47.4743 540.849,54.4743 538,61.5C 537.221,64.0972 536.721,64.0972 536.5,61.5C 539.258,53.665 542.258,45.9983 545.5,38.5 Z"/></g>
<g><path style="opacity:0.004" fill="#062f69" d="M 635.5,48.5 C 636.525,48.8966 636.692,49.5632 636,50.5C 635.536,49.9056 635.369,49.2389 635.5,48.5 Z"/></g>
<g><path style="opacity:0.012" fill="#06306a" d="M 674.5,49.5 C 675.833,50.1667 675.833,50.1667 674.5,49.5 Z"/></g>
<g><path style="opacity:0.004" fill="#0b316c" d="M 287.5,50.5 C 288.833,51.1667 288.833,51.1667 287.5,50.5 Z"/></g>
<g><path style="opacity:0.004" fill="#10366a" d="M 696.5,52.5 C 697.833,53.1667 697.833,53.1667 696.5,52.5 Z"/></g>
<g><path style="opacity:0.004" fill="#062e68" d="M 155.5,53.5 C 156.833,54.1667 156.833,54.1667 155.5,53.5 Z"/></g>
<g><path style="opacity:0.999" fill="#002561" d="M 137.5,51.5 C 137.828,62.3464 137.494,73.0131 136.5,83.5C 128.944,68.1129 116.944,57.9462 100.5,53C 95.3158,52.1837 90.3158,52.3503 85.5,53.5C 78.3643,54.4514 72.531,57.7847 68,63.5C 64.426,69.0561 61.926,75.0561 60.5,81.5C 58.2069,97.3995 57.8736,113.4 59.5,129.5C 66.4662,160.82 85.1329,170.987 115.5,160C 124.28,154.386 131.946,147.552 138.5,139.5C 138.5,146.833 138.5,154.167 138.5,161.5C 138.586,162.496 138.252,163.329 137.5,164C 126.289,172.6 113.622,177.934 99.5,180C 100.793,180.49 102.127,180.657 103.5,180.5C 101.735,181.461 99.7354,181.795 97.5,181.5C 79.2351,182.148 62.5685,177.314 47.5,167C 37.8625,157.872 31.1959,147.039 27.5,134.5C 25.9179,127.604 25.2513,120.604 25.5,113.5C 25.5,108.833 25.5,104.167 25.5,99.5C 26.392,78.0872 35.0587,60.7539 51.5,47.5C 67.6908,37.162 85.3575,33.662 104.5,37C 116.785,39.0347 127.785,43.868 137.5,51.5 Z"/></g>
<g><path style="opacity:0.004" fill="#0a2f6e" d="M 287.5,54.5 C 288.833,55.1667 288.833,55.1667 287.5,54.5 Z"/></g>
<g><path style="opacity:0.008" fill="#053069" d="M 635.5,53.5 C 636.525,53.8966 636.692,54.5632 636,55.5C 635.536,54.9056 635.369,54.2389 635.5,53.5 Z"/></g>
<g><path style="opacity:0.947" fill="#04081c" d="M 841.5,39.5 C 841.5,44.8333 841.5,50.1667 841.5,55.5C 822.571,55.5925 803.237,55.5925 783.5,55.5C 783.5,55.1667 783.5,54.8333 783.5,54.5C 802.5,54.5 821.5,54.5 840.5,54.5C 840.179,49.3054 840.513,44.3054 841.5,39.5 Z"/></g>
<g><path style="opacity:0.004" fill="#0b346e" d="M 36.5,55.5 C 37.8333,56.1667 37.8333,56.1667 36.5,55.5 Z"/></g>
<g><path style="opacity:0.831" fill="#071532" d="M 85.5,53.5 C 90.3158,52.3503 95.3158,52.1837 100.5,53C 116.944,57.9462 128.944,68.1129 136.5,83.5C 136.5,83.8333 136.5,84.1667 136.5,84.5C 136.167,84.5 135.833,84.5 135.5,84.5C 134.31,82.1307 132.643,80.1307 130.5,78.5C 130.672,77.5084 130.338,76.8417 129.5,76.5C 129.167,75.5 128.5,74.8333 127.5,74.5C 121.013,63.9169 111.68,57.2503 99.5,54.5C 95.03,53.5139 90.3633,53.1805 85.5,53.5 Z"/></g>
<g><path style="opacity:0.004" fill="#09316b" d="M 532.5,55.5 C 533.833,56.1667 533.833,56.1667 532.5,55.5 Z"/></g>
<g><path style="opacity:0.004" fill="#07326b" d="M 859.5,56.5 C 860.833,57.1667 860.833,57.1667 859.5,56.5 Z"/></g>
<g><path style="opacity:0.004" fill="#0e346f" d="M 35.5,57.5 C 36.8333,58.1667 36.8333,58.1667 35.5,57.5 Z"/></g>
<g><path style="opacity:0.008" fill="#0d336a" d="M 841.5,57.5 C 842.833,58.1667 842.833,58.1667 841.5,57.5 Z"/></g>
<g><path style="opacity:0.008" fill="#07306a" d="M 635.5,58.5 C 636.833,59.1667 636.833,59.1667 635.5,58.5 Z"/></g>
<g><path style="opacity:0.994" fill="#002561" d="M 782.5,54.5 C 781.351,69.0921 781.185,83.7588 782,98.5C 782.671,99.2524 783.504,99.5858 784.5,99.5C 798.5,99.5 812.5,99.5 826.5,99.5C 826.5,105.167 826.5,110.833 826.5,116.5C 812.5,116.5 798.5,116.5 784.5,116.5C 783.222,116.782 782.222,117.449 781.5,118.5C 780.263,117.652 778.93,116.152 777.5,114C 780.469,113.701 781.969,112.201 782,109.5C 780.691,111.891 779.691,111.891 779,109.5C 778.667,110.167 778.333,110.833 778,111.5C 775.75,107.672 773.584,107.838 771.5,112C 771.833,112.333 772.167,112.667 772.5,113C 769.846,115.072 770.18,116.739 773.5,118C 772.234,118.309 771.067,118.809 770,119.5C 769.667,119.167 769.333,118.833 769,118.5C 768.138,120.087 767.471,121.754 767,123.5C 765.637,125.784 764.137,125.951 762.5,124C 763.623,122.956 764.956,122.29 766.5,122C 765.354,121.355 764.354,120.522 763.5,119.5C 762.833,120.5 762.167,121.5 761.5,122.5C 760.494,122.062 760.494,121.396 761.5,120.5C 759.833,119.833 758.167,119.167 756.5,118.5C 757.771,118.874 758.938,118.208 760,116.5C 761.223,118.985 762.723,119.152 764.5,117C 761.371,116.883 760.205,115.383 761,112.5C 761.915,113.328 762.581,114.328 763,115.5C 764.594,114.284 766.094,112.951 767.5,111.5C 769.738,114.433 770.738,114.099 770.5,110.5C 769.5,110.5 768.5,110.5 767.5,110.5C 767.966,108.799 767.966,107.299 767.5,106C 768,105.5 768.5,105 769,104.5C 770.566,103.939 771.899,104.606 773,106.5C 775.19,105.416 776.856,106.083 778,108.5C 780.156,104.664 779.656,100.998 776.5,97.5C 777.247,97.2635 778.08,96.9302 779,96.5C 779.82,94.272 779.487,92.272 778,90.5C 776.57,90.3062 775.07,90.3062 773.5,90.5C 772.833,89.8333 772.167,89.1667 771.5,88.5C 770.784,89.8955 770.617,91.5622 771,93.5C 770,92.5 769,91.5 768,90.5C 766.127,92.3898 765.294,94.3898 765.5,96.5C 764.152,94.5387 762.819,94.3721 761.5,96C 762.891,97.6501 764.391,98.1501 766,97.5C 767.489,98.4239 767.656,99.4239 766.5,100.5C 763.963,98.9299 761.296,98.0966 758.5,98C 759.634,99.016 759.301,99.6827 757.5,100C 758.833,100.667 758.833,101.333 757.5,102C 758.126,102.75 758.626,103.584 759,104.5C 759.914,103.346 760.747,103.513 761.5,105C 759.023,106.643 756.69,108.476 754.5,110.5C 754.184,109.219 753.851,107.553 753.5,105.5C 753.667,104.5 753.833,103.5 754,102.5C 754.654,103.696 755.154,103.696 755.5,102.5C 754.306,101.201 753.306,99.8675 752.5,98.5C 752.83,81.9915 752.496,65.6581 751.5,49.5C 751.5,45.8333 751.5,42.1667 751.5,38.5C 780.833,38.5 810.167,38.5 839.5,38.5C 839.5,43.5 839.5,48.5 839.5,53.5C 820.326,53.1697 801.326,53.503 782.5,54.5 Z"/></g>
<g><path style="opacity:0.004" fill="#09336d" d="M 817.5,58.5 C 818.833,59.1667 818.833,59.1667 817.5,58.5 Z"/></g>
<g><path style="opacity:0.971" fill="#071c41" d="M 85.5,53.5 C 90.3633,53.1805 95.03,53.5139 99.5,54.5C 93.0908,54.1827 86.7575,54.6827 80.5,56C 77.2126,57.4675 74.5459,59.6341 72.5,62.5C 70.1644,64.0038 68.331,66.0038 67,68.5C 65.0353,73.5712 63.202,78.5712 61.5,83.5C 61.6716,82.5084 61.3382,81.8417 60.5,81.5C 61.926,75.0561 64.426,69.0561 68,63.5C 72.531,57.7847 78.3643,54.4514 85.5,53.5 Z"/></g>
<g><path style="opacity:0.973" fill="#06193b" d="M 229.5,37.5 C 256.539,41.8928 269.206,57.8928 267.5,85.5C 266.982,77.4631 265.482,69.4631 263,61.5C 260.634,56.9794 257.467,53.3127 253.5,50.5C 251.454,47.6341 248.787,45.4675 245.5,44C 238.976,41.496 232.309,39.496 225.5,38C 226.793,37.51 228.127,37.3433 229.5,37.5 Z"/></g>
<g><path style="opacity:0.043" fill="#0d4081" d="M 983.5,36.5 C 983.167,36.5 982.833,36.5 982.5,36.5C 975.167,36.5 967.833,36.5 960.5,36.5C 960.5,37.5 960.5,38.5 960.5,39.5C 960.5,55.5 960.5,71.5 960.5,87.5C 959.503,70.3414 959.17,53.008 959.5,35.5C 967.684,35.1743 975.684,35.5076 983.5,36.5 Z"/></g>
<g><path style="opacity:0.139" fill="#073877" d="M 138.5,51.5 C 139.659,62.9927 139.826,74.6593 139,86.5C 138.586,86.9574 138.086,87.2907 137.5,87.5C 136.818,86.7573 136.151,86.0906 135.5,85.5C 135.5,85.1667 135.5,84.8333 135.5,84.5C 135.833,84.5 136.167,84.5 136.5,84.5C 138.477,73.8842 139.144,62.8842 138.5,51.5 Z"/></g>
<g><path style="opacity:0.004" fill="#0d356b" d="M 696.5,60.5 C 697.833,61.1667 697.833,61.1667 696.5,60.5 Z"/></g>
<g><path style="opacity:0.927" fill="#000522" d="M 137.5,51.5 C 137.833,51.5 138.167,51.5 138.5,51.5C 139.144,62.8842 138.477,73.8842 136.5,84.5C 136.5,84.1667 136.5,83.8333 136.5,83.5C 137.494,73.0131 137.828,62.3464 137.5,51.5 Z"/></g>
<g><path style="opacity:0.012" fill="#06306b" d="M 635.5,60.5 C 636.573,61.2506 636.74,62.2506 636,63.5C 635.517,62.552 635.351,61.552 635.5,60.5 Z"/></g>
<g><path style="opacity:0.008" fill="#0a346d" d="M 72.5,62.5 C 73.8333,63.1667 73.8333,63.1667 72.5,62.5 Z"/></g>
<g><path style="opacity:0.004" fill="#07306d" d="M 114.5,62.5 C 115.833,63.1667 115.833,63.1667 114.5,62.5 Z"/></g>
<g><path style="opacity:0.986" fill="#031135" d="M 193.5,54.5 C 193.5,54.8333 193.5,55.1667 193.5,55.5C 192.503,72.3251 192.17,89.3251 192.5,106.5C 193.791,106.737 194.791,106.404 195.5,105.5C 202.535,105.674 209.535,105.341 216.5,104.5C 217.239,104.369 217.906,104.536 218.5,105C 213.035,107.119 207.369,107.952 201.5,107.5C 197.894,107.789 194.394,107.456 191,106.5C 190.333,89.5 190.333,72.5 191,55.5C 191.671,54.7476 192.504,54.4142 193.5,54.5 Z"/></g>
<g><path style="opacity:0.004" fill="#092f6e" d="M 397.5,64.5 C 396.833,63.1667 396.833,63.1667 397.5,64.5 Z"/></g>
<g><path style="opacity:0.977" fill="#0a0d1f" d="M 900.5,36.5 C 900.672,37.4916 900.338,38.1583 899.5,38.5C 887.5,37.1667 875.5,37.1667 863.5,38.5C 863.5,83.5 863.5,128.5 863.5,173.5C 862.501,128.003 862.168,82.3364 862.5,36.5C 875.167,35.1667 887.833,35.1667 900.5,36.5 Z"/></g>
<g><path style="opacity:0.004" fill="#07316b" d="M 397.5,64.5 C 398.833,65.1667 398.833,65.1667 397.5,64.5 Z"/></g>
<g><path style="opacity:0.996" fill="#002561" d="M 672.5,159.5 C 672.5,160.167 672.833,160.5 673.5,160.5C 692.326,161.497 711.326,161.83 730.5,161.5C 730.5,164.833 730.5,168.167 730.5,171.5C 730.5,173.167 730.5,174.833 730.5,176.5C 700.167,176.5 669.833,176.5 639.5,176.5C 639.5,130.167 639.5,83.8333 639.5,37.5C 650.167,37.5 660.833,37.5 671.5,37.5C 671.168,78.3368 671.501,119.003 672.5,159.5 Z"/></g>
<g><path style="opacity:0.337" fill="#093773" d="M 637.5,36.5 C 649.322,35.5049 661.322,35.1716 673.5,35.5C 673.5,76.8333 673.5,118.167 673.5,159.5C 693.007,159.17 712.341,159.503 731.5,160.5C 712.167,160.5 692.833,160.5 673.5,160.5C 672.833,160.5 672.5,160.167 672.5,159.5C 672.5,118.5 672.5,77.5 672.5,36.5C 661.167,36.5 649.833,36.5 638.5,36.5C 638.167,36.5 637.833,36.5 637.5,36.5 Z"/></g>
<g><path style="opacity:0.004" fill="#06306b" d="M 859.5,64.5 C 860.833,65.1667 860.833,65.1667 859.5,64.5 Z"/></g>
<g><path style="opacity:0.006" fill="#052e68" d="M 635.5,65.5 C 636.525,65.8966 636.692,66.5632 636,67.5C 635.536,66.9056 635.369,66.2389 635.5,65.5 Z"/></g>
<g><path style="opacity:0.004" fill="#083069" d="M 922.5,65.5 C 923.833,66.1667 923.833,66.1667 922.5,65.5 Z"/></g>
<g><path style="opacity:0.008" fill="#092e6a" d="M 398.5,67.5 C 399.833,68.1667 399.833,68.1667 398.5,67.5 Z"/></g>
<g><path style="opacity:0.997" fill="#002461" d="M 425.5,38.5 C 435.534,66.4259 445.701,94.4259 456,122.5C 456.464,121.906 456.631,121.239 456.5,120.5C 457.404,121.209 457.737,122.209 457.5,123.5C 456.566,124.568 456.232,125.901 456.5,127.5C 458.604,127.799 460.604,127.466 462.5,126.5C 463.095,122.074 464.095,117.741 465.5,113.5C 465.03,112.537 464.363,112.537 463.5,113.5C 463.66,111.847 464.326,110.514 465.5,109.5C 465.721,112.097 466.221,112.097 467,109.5C 475.167,87 483.333,64.5 491.5,42C 491.43,41.2352 491.097,40.7352 490.5,40.5C 490.557,39.391 490.89,38.391 491.5,37.5C 499.5,37.5 507.5,37.5 515.5,37.5C 496.974,83.7421 478.641,130.075 460.5,176.5C 454.833,176.5 449.167,176.5 443.5,176.5C 442.25,176.423 441.417,175.756 441,174.5C 424.817,130.287 408.817,85.9539 393,41.5C 392.517,42.448 392.351,43.448 392.5,44.5C 391.463,43.0697 390.796,41.403 390.5,39.5C 390.5,39.1667 390.5,38.8333 390.5,38.5C 402.295,37.1993 413.961,37.1993 425.5,38.5 Z"/></g>
<g><path style="opacity:1" fill="#051433" d="M 490.5,40.5 C 491.097,40.7352 491.43,41.2352 491.5,42C 483.333,64.5 475.167,87 467,109.5C 466.221,112.097 465.721,112.097 465.5,109.5C 473.262,86.2078 481.595,63.2078 490.5,40.5 Z"/></g>
<g><path style="opacity:0.008" fill="#0a346b" d="M 475.5,64.5 C 476.833,65.1667 476.833,65.1667 475.5,64.5 Z"/></g>
<g><path style="opacity:0.004" fill="#09336b" d="M 481.5,55.5 C 482.833,56.1667 482.833,56.1667 481.5,55.5 Z"/></g>
<g><path style="opacity:0.004" fill="#0d326c" d="M 484.5,39.5 C 485.833,40.1667 485.833,40.1667 484.5,39.5 Z"/></g>
<g><path style="opacity:0.963" fill="#0e152a" d="M 749.5,45.5 C 749.833,45.5 750.167,45.5 750.5,45.5C 750.168,89.3365 750.501,133.003 751.5,176.5C 752.167,176.5 752.833,176.5 753.5,176.5C 753.5,176.833 753.5,177.167 753.5,177.5C 751.517,177.843 750.183,177.176 749.5,175.5C 748.963,154.102 748.963,132.435 749.5,110.5C 749.5,88.8333 749.5,67.1667 749.5,45.5 Z"/></g>
<g><path style="opacity:0.004" fill="#0a346e" d="M 122.5,70.5 C 123.833,71.1667 123.833,71.1667 122.5,70.5 Z"/></g>
<g><path style="opacity:0.008" fill="#052f6c" d="M 635.5,70.5 C 636.833,71.1667 636.833,71.1667 635.5,70.5 Z"/></g>
<g><path style="opacity:0.012" fill="#09326a" d="M 529.5,71.5 C 530.833,72.1667 530.833,72.1667 529.5,71.5 Z"/></g>
<g><path style="opacity:0.004" fill="#09336d" d="M 746.5,71.5 C 747.833,72.1667 747.833,72.1667 746.5,71.5 Z"/></g>
<g><path style="opacity:0.008" fill="#0a316e" d="M 401.5,72.5 C 400.833,73.1667 400.833,73.1667 401.5,72.5 Z"/></g>
<g><path style="opacity:0.004" fill="#06326b" d="M 475.5,72.5 C 476.833,73.1667 476.833,73.1667 475.5,72.5 Z"/></g>
<g><path style="opacity:0.01" fill="#043068" d="M 635.5,72.5 C 636.573,73.2506 636.74,74.2506 636,75.5C 635.517,74.552 635.351,73.552 635.5,72.5 Z"/></g>
<g><path style="opacity:0.004" fill="#0e346b" d="M 696.5,72.5 C 697.833,73.1667 697.833,73.1667 696.5,72.5 Z"/></g>
<g><path style="opacity:0.004" fill="#0b336b" d="M 744.5,72.5 C 745.833,73.1667 745.833,73.1667 744.5,72.5 Z"/></g>
<g><path style="opacity:0.004" fill="#0b326d" d="M 839.5,72.5 C 840.833,73.1667 840.833,73.1667 839.5,72.5 Z"/></g>
<g><path style="opacity:0.016" fill="#07326c" d="M 859.5,72.5 C 860.833,73.1667 860.833,73.1667 859.5,72.5 Z"/></g>
<g><path style="opacity:0.969" fill="#051536" d="M 900.5,36.5 C 907.345,46.8552 914.678,56.8552 922.5,66.5C 924.855,71.8795 928.188,76.5462 932.5,80.5C 933.433,83.3702 935.1,85.7036 937.5,87.5C 942.097,95.6987 947.43,103.365 953.5,110.5C 953.738,112.404 954.738,113.738 956.5,114.5C 957.11,116.434 958.11,118.101 959.5,119.5C 960.028,120.847 960.195,122.181 960,123.5C 939.614,95.2876 919.448,66.9542 899.5,38.5C 900.338,38.1583 900.672,37.4916 900.5,36.5 Z"/></g>
<g><path style="opacity:0.574" fill="#082657" d="M 982.5,36.5 C 982.833,36.5 983.167,36.5 983.5,36.5C 983.833,84.1713 983.5,131.838 982.5,179.5C 981.893,179.376 981.56,179.043 981.5,178.5C 982.833,177.833 982.833,177.167 981.5,176.5C 981.5,176.167 981.5,175.833 981.5,175.5C 982.499,129.336 982.832,83.003 982.5,36.5 Z"/></g>
<g><path style="opacity:0.008" fill="#0c316c" d="M 127.5,74.5 C 126.833,75.1667 126.833,75.1667 127.5,74.5 Z"/></g>
<g><path style="opacity:0.004" fill="#0a346c" d="M 745.5,74.5 C 746.833,75.1667 746.833,75.1667 745.5,74.5 Z"/></g>
<g><path style="opacity:0.971" fill="#010f33" d="M 782.5,54.5 C 782.833,54.5 783.167,54.5 783.5,54.5C 783.5,54.8333 783.5,55.1667 783.5,55.5C 783.171,69.3435 783.504,83.0102 784.5,96.5C 784.5,97.1667 784.5,97.8333 784.5,98.5C 784.5,98.8333 784.5,99.1667 784.5,99.5C 783.504,99.5858 782.671,99.2524 782,98.5C 781.185,83.7588 781.351,69.0921 782.5,54.5 Z"/></g>
<g><path style="opacity:0.004" fill="#0c326a" d="M 937.5,74.5 C 938.833,75.1667 938.833,75.1667 937.5,74.5 Z"/></g>
<g><path style="opacity:0.997" fill="#002461" d="M 291.5,38.5 C 320.662,37.5019 349.995,37.1686 379.5,37.5C 379.5,43.1667 379.5,48.8333 379.5,54.5C 360.833,54.5 342.167,54.5 323.5,54.5C 322.883,54.6107 322.383,54.944 322,55.5C 321.333,68.8333 321.333,82.1667 322,95.5C 322.112,98.4471 323.612,99.7804 326.5,99.5C 338.833,99.5 351.167,99.5 363.5,99.5C 364.833,99.5 366.167,99.5 367.5,99.5C 366.725,104.797 366.392,110.13 366.5,115.5C 352.677,116.496 338.677,116.829 324.5,116.5C 323.504,116.414 322.671,116.748 322,117.5C 321.333,131.5 321.333,145.5 322,159.5C 322.417,160.756 323.25,161.423 324.5,161.5C 344.5,161.5 364.5,161.5 384.5,161.5C 384.181,166.363 384.514,171.03 385.5,175.5C 385.5,175.833 385.5,176.167 385.5,176.5C 384.833,176.5 384.167,176.5 383.5,176.5C 383.665,173.482 383.498,170.482 383,167.5C 382.503,170.146 382.336,172.813 382.5,175.5C 359.833,175.5 337.167,175.5 314.5,175.5C 310.506,174.627 310.506,173.46 314.5,172C 313.167,171 313.167,170 314.5,169C 310.617,166.755 309.95,167.255 312.5,170.5C 311.499,172.936 310.332,172.936 309,170.5C 308.901,174.417 307.068,174.25 303.5,170C 307.005,168.524 309.672,166.191 311.5,163C 309.711,164.359 307.545,165.526 305,166.5C 301.557,165.136 301.724,164.469 305.5,164.5C 305.5,163.167 305.5,161.833 305.5,160.5C 307.109,160.906 308.443,160.906 309.5,160.5C 308.752,158.668 307.752,157.001 306.5,155.5C 308.316,154.185 309.983,152.685 311.5,151C 310.09,150.632 309.09,149.799 308.5,148.5C 309.529,148.704 310.529,148.204 311.5,147C 310.5,146.667 309.5,146.333 308.5,146C 309.716,144.26 311.382,143.26 313.5,143C 312.692,142.692 312.025,142.192 311.5,141.5C 312.64,139.922 313.14,138.256 313,136.5C 310.667,139.151 308.833,138.984 307.5,136C 309.802,135.808 311.802,134.474 313.5,132C 313.167,131.667 312.833,131.333 312.5,131C 315.332,129.092 314.999,128.259 311.5,128.5C 312.75,126.032 312.583,123.699 311,121.5C 310.361,124.228 309.194,124.728 307.5,123C 310.096,121.203 309.763,119.869 306.5,119C 307.167,118.667 307.833,118.333 308.5,118C 307.5,116.333 306.167,115 304.5,114C 305.833,114 307.167,114 308.5,114C 308.201,112.68 308.034,111.18 308,109.5C 307.346,110.696 306.846,110.696 306.5,109.5C 307.374,107.253 307.708,104.92 307.5,102.5C 306.127,102.657 304.793,102.49 303.5,102C 304.636,100.47 305.636,99.1369 306.5,98C 305.167,96.1598 305.334,95.6598 307,96.5C 308.113,95.2396 308.28,94.073 307.5,93C 309.824,89.907 312.157,90.0737 314.5,93.5C 315.647,91.2351 315.814,88.9018 315,86.5C 314.333,83.8333 313.667,83.8333 313,86.5C 311.463,83.1936 309.296,82.6936 306.5,85C 306.833,85.3333 307.167,85.6667 307.5,86C 306.333,86.5 305.5,87.3333 305,88.5C 304.316,87.2161 304.483,86.0495 305.5,85C 304.692,84.6924 304.025,84.1924 303.5,83.5C 303.428,81.2036 303.594,78.8703 304,76.5C 302.636,77.2583 301.469,76.7583 300.5,75C 302.765,71.7999 304.765,68.4666 306.5,65C 305.891,62.9419 304.891,62.1086 303.5,62.5C 305.007,61.2612 306.174,61.5946 307,63.5C 308.299,63.0338 309.799,63.0338 311.5,63.5C 311.33,62.1779 311.663,61.0113 312.5,60C 309.772,59.1603 308.105,57.8269 307.5,56C 308.167,55.3333 308.833,54.6667 309.5,54C 307.837,53.7351 306.337,54.2351 305,55.5C 304.5,55 304,54.5 303.5,54C 306.943,53.7787 307.276,52.7787 304.5,51C 306.259,50.0196 307.926,49.353 309.5,49C 307.109,47.6914 307.109,46.6914 309.5,46C 308.234,45.6905 307.067,45.1905 306,44.5C 304.148,46.2297 304.314,47.3964 306.5,48C 304.671,48.2735 303.171,49.1068 302,50.5C 301.504,48.9651 301.67,47.4651 302.5,46C 300.035,41.4984 300.535,41.3317 304,45.5C 304.29,43.9559 304.956,42.6226 306,41.5C 308.022,42.7865 310.189,43.7865 312.5,44.5C 312.911,43.7376 313.077,42.7376 313,41.5C 313.333,41.8333 313.667,42.1667 314,42.5C 314.442,40.3215 315.442,39.6548 317,40.5C 319.069,39.7362 321.236,39.2362 323.5,39C 312.839,38.5002 302.172,38.3335 291.5,38.5 Z"/></g>
<g><path style="opacity:0.922" fill="#010923" d="M 323.5,54.5 C 323.5,54.8333 323.5,55.1667 323.5,55.5C 323.535,69.5423 323.535,83.3756 323.5,97C 324.502,98.1563 325.502,98.6563 326.5,98.5C 326.5,98.8333 326.5,99.1667 326.5,99.5C 323.612,99.7804 322.112,98.4471 322,95.5C 321.333,82.1667 321.333,68.8333 322,55.5C 322.383,54.944 322.883,54.6107 323.5,54.5 Z"/></g>
<g><path style="opacity:1" fill="#071430" d="M 50.5,46.5 C 51.1667,46.5 51.5,46.8333 51.5,47.5C 35.0587,60.7539 26.392,78.0872 25.5,99.5C 24.5318,97.3926 24.1984,95.0593 24.5,92.5C 24.5,92.1667 24.5,91.8333 24.5,91.5C 25.4511,90.0813 25.7845,88.4147 25.5,86.5C 25.5,85.1667 25.5,83.8333 25.5,82.5C 29.4212,69.3359 36.4212,58.0025 46.5,48.5C 47.8333,47.8333 49.1667,47.1667 50.5,46.5 Z"/></g>
<g><path style="opacity:0.004" fill="#093470" d="M 129.5,76.5 C 128.833,77.1667 128.833,77.1667 129.5,76.5 Z"/></g>
<g><path style="opacity:0.009" fill="#053069" d="M 635.5,76.5 C 636.573,77.2506 636.74,78.2506 636,79.5C 635.517,78.552 635.351,77.552 635.5,76.5 Z"/></g>
<g><path style="opacity:0.004" fill="#0d356b" d="M 696.5,76.5 C 697.833,77.1667 697.833,77.1667 696.5,76.5 Z"/></g>
<g><path style="opacity:0.016" fill="#09326d" d="M 130.5,78.5 C 129.833,79.1667 129.833,79.1667 130.5,78.5 Z"/></g>
<g><path style="opacity:0.004" fill="#082f6d" d="M 287.5,78.5 C 288.833,79.1667 288.833,79.1667 287.5,78.5 Z"/></g>
<g><path style="opacity:0.004" fill="#08306b" d="M 585.5,79.5 C 586.833,80.1667 586.833,80.1667 585.5,79.5 Z"/></g>
<g><path style="opacity:0.004" fill="#0c326c" d="M 932.5,79.5 C 933.833,80.1667 933.833,80.1667 932.5,79.5 Z"/></g>
<g><path style="opacity:0.004" fill="#0b326c" d="M 934.5,79.5 C 935.833,80.1667 935.833,80.1667 934.5,79.5 Z"/></g>
<g><path style="opacity:0.004" fill="#05326d" d="M 283.5,80.5 C 284.833,81.1667 284.833,81.1667 283.5,80.5 Z"/></g>
<g><path style="opacity:0.008" fill="#0a306a" d="M 501.5,80.5 C 502.833,81.1667 502.833,81.1667 501.5,80.5 Z"/></g>
<g><path style="opacity:0.004" fill="#0e356b" d="M 696.5,80.5 C 697.833,81.1667 697.833,81.1667 696.5,80.5 Z"/></g>
<g><path style="opacity:0.004" fill="#08306a" d="M 859.5,80.5 C 860.833,81.1667 860.833,81.1667 859.5,80.5 Z"/></g>
<g><path style="opacity:0.008" fill="#0f346d" d="M 25.5,82.5 C 24.8333,81.1667 24.8333,81.1667 25.5,82.5 Z"/></g>
<g><path style="opacity:0.004" fill="#072f6c" d="M 403.5,81.5 C 404.833,82.1667 404.833,82.1667 403.5,81.5 Z"/></g>
<g><path style="opacity:0.004" fill="#093269" d="M 743.5,81.5 C 744.833,82.1667 744.833,82.1667 743.5,81.5 Z"/></g>
<g><path style="opacity:0.004" fill="#09326c" d="M 287.5,82.5 C 288.833,83.1667 288.833,83.1667 287.5,82.5 Z"/></g>
<g><path style="opacity:0.004" fill="#06306a" d="M 586.5,82.5 C 587.833,83.1667 587.833,83.1667 586.5,82.5 Z"/></g>
<g><path style="opacity:0.929" fill="#051434" d="M 426.5,36.5 C 432.771,54.311 439.437,71.9777 446.5,89.5C 449.833,99.8333 453.167,110.167 456.5,120.5C 456.631,121.239 456.464,121.906 456,122.5C 445.701,94.4259 435.534,66.4259 425.5,38.5C 426.338,38.1583 426.672,37.4916 426.5,36.5 Z"/></g>
<g><path style="opacity:0.012" fill="#082f6d" d="M 886.5,83.5 C 887.833,84.1667 887.833,84.1667 886.5,83.5 Z"/></g>
<g><path style="opacity:0.004" fill="#09326c" d="M 935.5,83.5 C 936.833,84.1667 936.833,84.1667 935.5,83.5 Z"/></g>
<g><path style="opacity:0.004" fill="#092f6b" d="M 938.5,83.5 C 939.833,84.1667 939.833,84.1667 938.5,83.5 Z"/></g>
<g><path style="opacity:0.004" fill="#08306b" d="M 131.5,84.5 C 132.833,85.1667 132.833,85.1667 131.5,84.5 Z"/></g>
<g><path style="opacity:0.004" fill="#0b2e65" d="M 135.5,85.5 C 134.833,86.1667 134.833,86.1667 135.5,85.5 Z"/></g>
<g><path style="opacity:0.004" fill="#082f6c" d="M 287.5,86.5 C 288.833,87.1667 288.833,87.1667 287.5,86.5 Z"/></g>
<g><path style="opacity:0.004" fill="#0a326c" d="M 383.5,86.5 C 384.833,87.1667 384.833,87.1667 383.5,86.5 Z"/></g>
<g><path style="opacity:0.008" fill="#0a316e" d="M 890.5,86.5 C 889.833,87.1667 889.833,87.1667 890.5,86.5 Z"/></g>
<g><path style="opacity:0.024" fill="#09326c" d="M 937.5,86.5 C 938.833,87.1667 938.833,87.1667 937.5,86.5 Z"/></g>
<g><path style="opacity:0.008" fill="#0d3268" d="M 20.5,87.5 C 21.8333,88.1667 21.8333,88.1667 20.5,87.5 Z"/></g>
<g><path style="opacity:0.078" fill="#0e356f" d="M 25.5,86.5 C 25.7845,88.4147 25.4511,90.0813 24.5,91.5C 24.6427,89.7376 24.3094,88.0709 23.5,86.5C 23.9698,85.537 24.6365,85.537 25.5,86.5 Z"/></g>
<g><path style="opacity:0.008" fill="#072e6c" d="M 405.5,88.5 C 404.833,87.1667 404.833,87.1667 405.5,88.5 Z"/></g>
<g><path style="opacity:0.004" fill="#05316a" d="M 674.5,87.5 C 675.833,88.1667 675.833,88.1667 674.5,87.5 Z"/></g>
<g><path style="opacity:0.004" fill="#032c66" d="M 156.5,88.5 C 155.833,89.1667 155.833,89.1667 156.5,88.5 Z"/></g>
<g><path style="opacity:0.004" fill="#052f6b" d="M 404.5,88.5 C 403.833,89.1667 403.833,89.1667 404.5,88.5 Z"/></g>
<g><path style="opacity:0.008" fill="#08326b" d="M 405.5,88.5 C 406.833,89.1667 406.833,89.1667 405.5,88.5 Z"/></g>
<g><path style="opacity:0.008" fill="#09316d" d="M 446.5,88.5 C 447.833,89.1667 447.833,89.1667 446.5,88.5 Z"/></g>
<g><path style="opacity:0.004" fill="#0b336b" d="M 746.5,88.5 C 747.833,89.1667 747.833,89.1667 746.5,88.5 Z"/></g>
<g><path style="opacity:0.008" fill="#05316a" d="M 859.5,88.5 C 860.833,89.1667 860.833,89.1667 859.5,88.5 Z"/></g>
<g><path style="opacity:0.004" fill="#082f6c" d="M 955.5,88.5 C 956.833,89.1667 956.833,89.1667 955.5,88.5 Z"/></g>
<g><path style="opacity:0.004" fill="#0e346b" d="M 20.5,89.5 C 21.8333,90.1667 21.8333,90.1667 20.5,89.5 Z"/></g>
<g><path style="opacity:0.004" fill="#0d336b" d="M 22.5,89.5 C 23.8333,90.1667 23.8333,90.1667 22.5,89.5 Z"/></g>
<g><path style="opacity:0.004" fill="#08316e" d="M 892.5,88.5 C 892.631,89.2389 892.464,89.9056 892,90.5C 891.308,89.5632 891.475,88.8966 892.5,88.5 Z"/></g>
<g><path style="opacity:0.004" fill="#0d346a" d="M 20.5,90.5 C 19.8333,91.1667 19.8333,91.1667 20.5,90.5 Z"/></g>
<g><path style="opacity:0.004" fill="#07306b" d="M 407.5,91.5 C 406.761,91.631 406.094,91.4643 405.5,91C 406.437,90.3083 407.103,90.475 407.5,91.5 Z"/></g>
<g><path style="opacity:0.004" fill="#0b316b" d="M 675.5,90.5 C 676.833,91.1667 676.833,91.1667 675.5,90.5 Z"/></g>
<g><path style="opacity:0.004" fill="#09336c" d="M 745.5,90.5 C 746.833,91.1667 746.833,91.1667 745.5,90.5 Z"/></g>
<g><path style="opacity:0.004" fill="#052f6c" d="M 407.5,91.5 C 407.833,91.5 408.167,91.5 408.5,91.5C 408.315,92.1701 407.981,92.1701 407.5,91.5 Z"/></g>
<g><path style="opacity:0.055" fill="#0a3d7e" d="M 193.5,55.5 C 192.848,72.5335 193.515,89.2002 195.5,105.5C 194.791,106.404 193.791,106.737 192.5,106.5C 192.17,89.3251 192.503,72.3251 193.5,55.5 Z"/></g>
<g><path style="opacity:0.004" fill="#06306d" d="M 468.5,92.5 C 469.833,93.1667 469.833,93.1667 468.5,92.5 Z"/></g>
<g><path style="opacity:1" fill="#071737" d="M 470.5,157.5 C 467.219,164.394 464.219,171.394 461.5,178.5C 461.672,177.508 461.338,176.842 460.5,176.5C 478.641,130.075 496.974,83.7421 515.5,37.5C 507.5,37.5 499.5,37.5 491.5,37.5C 495.445,36.1745 499.778,35.5079 504.5,35.5C 509.34,35.3585 514.007,35.8585 518.5,37C 501.617,76.8157 485.617,116.982 470.5,157.5 Z"/></g>
<g><path style="opacity:0.004" fill="#072f6d" d="M 590.5,92.5 C 591.833,93.1667 591.833,93.1667 590.5,92.5 Z"/></g>
<g><path style="opacity:0.004" fill="#0a346b" d="M 696.5,92.5 C 697.833,93.1667 697.833,93.1667 696.5,92.5 Z"/></g>
<g><path style="opacity:0.004" fill="#0c356e" d="M 791.5,93.5 C 792.833,94.1667 792.833,94.1667 791.5,93.5 Z"/></g>
<g><path style="opacity:0.997" fill="#002561" d="M 253.5,50.5 C 257.467,53.3127 260.634,56.9794 263,61.5C 265.482,69.4631 266.982,77.4631 267.5,85.5C 267.784,87.4147 267.451,89.0813 266.5,90.5C 266.649,89.448 266.483,88.448 266,87.5C 262.009,103.661 252.175,114.661 236.5,120.5C 245.814,137.795 255.648,154.795 266,171.5C 267.009,173.025 267.509,174.692 267.5,176.5C 255.829,176.667 244.162,176.5 232.5,176C 222.667,158.833 212.833,141.667 203,124.5C 202.536,125.094 202.369,125.761 202.5,126.5C 199.72,125.922 197.053,125.255 194.5,124.5C 197.059,124.802 199.393,124.468 201.5,123.5C 202.701,120.396 202.367,117.396 200.5,114.5C 199.167,115.167 198.167,116.167 197.5,117.5C 198.274,118.711 199.107,118.711 200,117.5C 200.374,118.416 200.874,119.25 201.5,120C 199.75,121.319 197.75,121.819 195.5,121.5C 195.966,119.799 195.966,118.299 195.5,117C 197.563,115.428 198.229,113.595 197.5,111.5C 199.375,110.591 200.708,109.257 201.5,107.5C 207.369,107.952 213.035,107.119 218.5,105C 217.906,104.536 217.239,104.369 216.5,104.5C 217.209,103.596 218.209,103.263 219.5,103.5C 219.56,104.043 219.893,104.376 220.5,104.5C 231.334,99.5567 236.334,91.0567 235.5,79C 235.512,74.5493 234.512,70.3827 232.5,66.5C 235.294,65.4154 235.961,63.5821 234.5,61C 235.167,59.6667 236.167,58.6667 237.5,58C 235.699,57.6827 235.366,57.016 236.5,56C 235.707,54.9148 235.04,53.7481 234.5,52.5C 236.167,51.5 237.5,50.1667 238.5,48.5C 237.053,48.3322 235.387,47.6656 233.5,46.5C 234.313,45.1861 235.313,44.0195 236.5,43C 240.641,43.4439 244.141,45.2772 247,48.5C 247.333,48.1667 247.667,47.8333 248,47.5C 248.317,49.3008 248.984,49.6341 250,48.5C 250.816,49.8228 251.983,50.4894 253.5,50.5 Z"/></g>
<g><path style="opacity:0.008" fill="#082e69" d="M 266.5,94.5 C 267.833,95.1667 267.833,95.1667 266.5,94.5 Z"/></g>
<g><path style="opacity:0.004" fill="#0f356c" d="M 21.5,95.5 C 22.8333,96.1667 22.8333,96.1667 21.5,95.5 Z"/></g>
<g><path style="opacity:0.004" fill="#082f6f" d="M 343.5,95.5 C 344.833,96.1667 344.833,96.1667 343.5,95.5 Z"/></g>
<g><path style="opacity:0.004" fill="#05326f" d="M 345.5,96.5 C 345.897,95.475 346.563,95.3083 347.5,96C 346.906,96.4643 346.239,96.631 345.5,96.5 Z"/></g>
<g><path style="opacity:0.008" fill="#07346e" d="M 355.5,95.5 C 356.833,96.1667 356.833,96.1667 355.5,95.5 Z"/></g>
<g><path style="opacity:0.008" fill="#09336c" d="M 363.5,95.5 C 364.833,96.1667 364.833,96.1667 363.5,95.5 Z"/></g>
<g><path style="opacity:0.997" fill="#002561" d="M 529.5,83.5 C 529.577,84.7498 530.244,85.5831 531.5,86C 530.167,86.6667 529.167,87.6667 528.5,89C 530.749,91.4094 530.082,93.2428 526.5,94.5C 527.912,95.8064 529.579,96.6397 531.5,97C 529.071,97.4512 528.904,98.2845 531,99.5C 532.333,99.5 533.667,99.5 535,99.5C 536.284,100.572 536.617,101.905 536,103.5C 538.043,101.792 539.71,99.792 541,97.5C 541.464,98.0944 541.631,98.7611 541.5,99.5C 537.45,110.476 533.95,121.476 531,132.5C 542.09,133.653 553.257,133.82 564.5,133C 566.343,132.841 567.009,132.341 566.5,131.5C 566.5,131.167 566.5,130.833 566.5,130.5C 567.167,130.5 567.5,130.167 567.5,129.5C 568.151,128.909 568.818,128.243 569.5,127.5C 571.063,128.945 572.396,130.611 573.5,132.5C 574.541,130.009 575.374,130.009 576,132.5C 576.667,128.5 577.333,128.5 578,132.5C 578.667,130.5 578.667,128.5 578,126.5C 577.692,127.308 577.192,127.975 576.5,128.5C 573.833,127.167 573.833,125.833 576.5,124.5C 578.688,125.444 580.021,127.111 580.5,129.5C 579.456,131.768 579.289,134.101 580,136.5C 580.414,136.043 580.914,135.709 581.5,135.5C 582.711,136.274 582.711,137.107 581.5,138C 582.938,138.219 584.271,138.719 585.5,139.5C 585.154,140.696 584.654,140.696 584,139.5C 583.544,140.744 584.044,141.577 585.5,142C 584.833,142.333 584.167,142.667 583.5,143C 584.672,143.419 585.672,144.085 586.5,145C 586.198,146.969 585.198,148.303 583.5,149C 583.613,150.28 584.28,151.113 585.5,151.5C 586.672,148.964 587.672,146.464 588.5,144C 587.833,143.667 587.167,143.333 586.5,143C 587.227,140.876 587.894,138.709 588.5,136.5C 588.167,136.167 587.833,135.833 587.5,135.5C 584.163,138.32 582.996,137.653 584,133.5C 583.075,132.953 582.242,132.287 581.5,131.5C 583.5,130.833 585.5,130.167 587.5,129.5C 586.313,129.446 584.98,129.113 583.5,128.5C 583.808,127.692 584.308,127.025 585,126.5C 586.183,127.731 587.349,127.731 588.5,126.5C 585.656,125.803 585.989,124.636 589.5,123C 586.216,119.235 586.216,115.235 589.5,111C 587.686,108.519 587.02,105.685 587.5,102.5C 588.791,102.737 589.791,102.404 590.5,101.5C 601.549,126.305 612.215,151.305 622.5,176.5C 610.5,176.5 598.5,176.5 586.5,176.5C 582.596,167.361 579.263,158.028 576.5,148.5C 559.5,148.5 542.5,148.5 525.5,148.5C 523.589,148.574 522.422,149.574 522,151.5C 519.306,159.055 516.472,166.555 513.5,174C 513.57,174.765 513.903,175.265 514.5,175.5C 514.414,176.496 514.748,177.329 515.5,178C 514.906,178.464 514.239,178.631 513.5,178.5C 506.576,176.537 499.243,175.87 491.5,176.5C 503.922,145.333 516.589,114.333 529.5,83.5 Z"/></g>
<g><path style="opacity:0.004" fill="#08316b" d="M 746.5,95.5 C 747.833,96.1667 747.833,96.1667 746.5,95.5 Z"/></g>
<g><path style="opacity:0.015" fill="#094386" d="M 749.5,36.5 C 749.5,39.5 749.5,42.5 749.5,45.5C 749.5,67.1667 749.5,88.8333 749.5,110.5C 748.829,86.7644 748.162,62.9311 747.5,39C 748.066,38.0053 748.733,37.172 749.5,36.5 Z"/></g>
<g><path style="opacity:0.004" fill="#0a306c" d="M 784.5,95.5 C 785.833,96.1667 785.833,96.1667 784.5,95.5 Z"/></g>
<g><path style="opacity:0.012" fill="#083573" d="M 790.5,98.5 C 789.833,98.5 789.167,98.5 788.5,98.5C 788.167,97.1667 787.833,97.1667 787.5,98.5C 787.167,98.5 786.833,98.5 786.5,98.5C 787.072,95.7564 788.738,94.9231 791.5,96C 790.748,96.6708 790.414,97.5041 790.5,98.5 Z"/></g>
<g><path style="opacity:0.004" fill="#07336e" d="M 792.5,95.5 C 793.525,95.8966 793.692,96.5632 793,97.5C 792.536,96.9056 792.369,96.2389 792.5,95.5 Z"/></g>
<g><path style="opacity:0.008" fill="#06306d" d="M 803.5,96.5 C 804.251,95.4265 805.251,95.2599 806.5,96C 805.552,96.4828 804.552,96.6495 803.5,96.5 Z"/></g>
<g><path style="opacity:0.008" fill="#09316d" d="M 815.5,95.5 C 816.833,96.1667 816.833,96.1667 815.5,95.5 Z"/></g>
<g><path style="opacity:0.016" fill="#052f6b" d="M 825.5,95.5 C 826.833,96.1667 826.833,96.1667 825.5,95.5 Z"/></g>
<g><path style="opacity:0.006" fill="#07336f" d="M 340.5,97.5 C 335.979,97.6738 335.645,97.0071 339.5,95.5C 340.298,95.9569 340.631,96.6236 340.5,97.5 Z"/></g>
<g><path style="opacity:0.004" fill="#053270" d="M 341.5,97.5 C 341.369,96.7611 341.536,96.0944 342,95.5C 342.692,96.4368 342.525,97.1034 341.5,97.5 Z"/></g>
<g><path style="opacity:0.004" fill="#053471" d="M 797.5,98.5 C 797.167,98.5 796.833,98.5 796.5,98.5C 796.047,97.5416 795.381,96.7083 794.5,96C 796.489,95.4808 797.489,96.3141 797.5,98.5 Z"/></g>
<g><path style="opacity:0.004" fill="#05336d" d="M 817.5,97.5 C 817.897,96.475 818.563,96.3083 819.5,97C 818.906,97.4643 818.239,97.631 817.5,97.5 Z"/></g>
<g><path style="opacity:0.004" fill="#073069" d="M 888.5,96.5 C 889.833,97.1667 889.833,97.1667 888.5,96.5 Z"/></g>
<g><path style="opacity:0.004" fill="#0b336c" d="M 745.5,97.5 C 746.833,98.1667 746.833,98.1667 745.5,97.5 Z"/></g>
<g><path style="opacity:0.008" fill="#09397b" d="M 813.5,98.5 C 812.5,98.5 811.5,98.5 810.5,98.5C 810.351,97.448 810.517,96.448 811,95.5C 811.698,96.6906 812.531,97.6906 813.5,98.5 Z"/></g>
<g><path style="opacity:0.004" fill="#06306a" d="M 859.5,96.5 C 860.573,97.2506 860.74,98.2506 860,99.5C 859.517,98.552 859.351,97.552 859.5,96.5 Z"/></g>
<g><path style="opacity:0.978" fill="#080819" d="M 340.5,97.5 C 340.833,97.5 341.167,97.5 341.5,97.5C 348.485,98.2229 355.819,98.5562 363.5,98.5C 363.5,98.8333 363.5,99.1667 363.5,99.5C 351.167,99.5 338.833,99.5 326.5,99.5C 326.5,99.1667 326.5,98.8333 326.5,98.5C 331.311,97.674 335.978,97.3406 340.5,97.5 Z"/></g>
<g><path style="opacity:0.989" fill="#061535" d="M 368.5,104.5 C 367.833,108.167 367.167,111.833 366.5,115.5C 366.392,110.13 366.725,104.797 367.5,99.5C 366.167,99.5 364.833,99.5 363.5,99.5C 363.5,99.1667 363.5,98.8333 363.5,98.5C 364.465,98.5997 365.632,98.2664 367,97.5C 368.059,97.6301 368.892,98.1301 369.5,99C 369.31,100.828 368.977,102.662 368.5,104.5 Z"/></g>
<g><path style="opacity:0.004" fill="#0b316b" d="M 837.5,98.5 C 838.833,99.1667 838.833,99.1667 837.5,98.5 Z"/></g>
<g><path style="opacity:0.004" fill="#07316c" d="M 674.5,99.5 C 675.833,100.167 675.833,100.167 674.5,99.5 Z"/></g>
<g><path style="opacity:0.004" fill="#0b316e" d="M 745.5,99.5 C 746.833,100.167 746.833,100.167 745.5,99.5 Z"/></g>
<g><path style="opacity:0.953" fill="#021a43" d="M 24.5,92.5 C 24.1984,95.0593 24.5318,97.3926 25.5,99.5C 25.5,104.167 25.5,108.833 25.5,113.5C 24.8333,110.167 24.1667,106.833 23.5,103.5C 23.1667,103.5 22.8333,103.5 22.5,103.5C 23.1031,99.7272 23.7698,96.0606 24.5,92.5 Z"/></g>
<g><path style="opacity:0.953" fill="#061534" d="M 193.5,55.5 C 193.5,55.1667 193.5,54.8333 193.5,54.5C 202.9,54.1137 212.234,54.6137 221.5,56C 226.978,57.7159 230.644,61.2159 232.5,66.5C 234.512,70.3827 235.512,74.5493 235.5,79C 236.334,91.0567 231.334,99.5567 220.5,104.5C 219.893,104.376 219.56,104.043 219.5,103.5C 230.773,97.2511 235.273,87.5844 233,74.5C 232.167,65.3347 227.333,59.5014 218.5,57C 210.203,55.8773 201.87,55.3773 193.5,55.5 Z"/></g>
<g><path style="opacity:0.004" fill="#0a356c" d="M 696.5,100.5 C 697.833,101.167 697.833,101.167 696.5,100.5 Z"/></g>
<g><path style="opacity:0.984" fill="#0b0f21" d="M 810.5,98.5 C 811.5,98.5 812.5,98.5 813.5,98.5C 818.485,98.3359 823.318,98.3359 828,98.5C 828.82,105.014 828.653,111.347 827.5,117.5C 813.167,117.5 798.833,117.5 784.5,117.5C 784.5,117.167 784.5,116.833 784.5,116.5C 798.5,116.5 812.5,116.5 826.5,116.5C 826.5,110.833 826.5,105.167 826.5,99.5C 812.5,99.5 798.5,99.5 784.5,99.5C 784.5,99.1667 784.5,98.8333 784.5,98.5C 785.167,98.5 785.833,98.5 786.5,98.5C 786.833,98.5 787.167,98.5 787.5,98.5C 787.833,98.5 788.167,98.5 788.5,98.5C 789.167,98.5 789.833,98.5 790.5,98.5C 792.5,98.5 794.5,98.5 796.5,98.5C 796.833,98.5 797.167,98.5 797.5,98.5C 801.924,97.9028 806.257,97.9028 810.5,98.5 Z"/></g>
<g><path style="opacity:0.004" fill="#052f6c" d="M 886.5,101.5 C 887.525,101.897 887.692,102.563 887,103.5C 886.536,102.906 886.369,102.239 886.5,101.5 Z"/></g>
<g><path style="opacity:0.004" fill="#072e6c" d="M 594.5,102.5 C 595.833,103.167 595.833,103.167 594.5,102.5 Z"/></g>
<g><path style="opacity:0.008" fill="#042e6a" d="M 635.5,101.5 C 636.525,101.897 636.692,102.563 636,103.5C 635.536,102.906 635.369,102.239 635.5,101.5 Z"/></g>
<g><path style="opacity:0.004" fill="#07306c" d="M 889.5,102.5 C 890.833,103.167 890.833,103.167 889.5,102.5 Z"/></g>
<g><path style="opacity:0.004" fill="#0b356c" d="M 22.5,103.5 C 21.8333,104.167 21.8333,104.167 22.5,103.5 Z"/></g>
<g><path style="opacity:0.004" fill="#032b66" d="M 155.5,104.5 C 156.833,105.167 156.833,105.167 155.5,104.5 Z"/></g>
<g><path style="opacity:0.004" fill="#062f67" d="M 635.5,104.5 C 636.833,105.167 636.833,105.167 635.5,104.5 Z"/></g>
<g><path style="opacity:0.004" fill="#09336c" d="M 746.5,104.5 C 747.833,105.167 747.833,105.167 746.5,104.5 Z"/></g>
<g><path style="opacity:0.004" fill="#06306a" d="M 859.5,104.5 C 860.833,105.167 860.833,105.167 859.5,104.5 Z"/></g>
<g><path style="opacity:0.004" fill="#0b336d" d="M 20.5,105.5 C 21.8333,106.167 21.8333,106.167 20.5,105.5 Z"/></g>
<g><path style="opacity:0.008" fill="#09326e" d="M 904.5,105.5 C 903.833,106.167 903.833,106.167 904.5,105.5 Z"/></g>
<g><path style="opacity:0.004" fill="#07306a" d="M 953.5,106.5 C 952.833,105.167 952.833,105.167 953.5,106.5 Z"/></g>
<g><path style="opacity:0.958" fill="#081631" d="M 60.5,81.5 C 61.3382,81.8417 61.6716,82.5084 61.5,83.5C 60.801,90.9904 60.1344,98.4904 59.5,106C 60.1378,112.153 60.4711,118.319 60.5,124.5C 60.7845,126.415 60.4511,128.081 59.5,129.5C 57.8736,113.4 58.2069,97.3995 60.5,81.5 Z"/></g>
<g><path style="opacity:0.012" fill="#052f69" d="M 635.5,106.5 C 636.833,107.167 636.833,107.167 635.5,106.5 Z"/></g>
<g><path style="opacity:0.004" fill="#082f6c" d="M 953.5,106.5 C 954.833,107.167 954.833,107.167 953.5,106.5 Z"/></g>
<g><path style="opacity:0.996" fill="#061434" d="M 548.5,86.5 C 542.981,101.055 537.647,115.721 532.5,130.5C 543.981,131.396 555.315,131.729 566.5,131.5C 567.009,132.341 566.343,132.841 564.5,133C 553.257,133.82 542.09,133.653 531,132.5C 533.95,121.476 537.45,110.476 541.5,99.5C 543.767,94.8883 545.767,90.0549 547.5,85C 547.85,83.7425 548.517,83.4092 549.5,84C 548.748,84.6708 548.414,85.5041 548.5,86.5 Z"/></g>
<g><path style="opacity:0.992" fill="#051637" d="M 567.5,129.5 C 567.5,130.167 567.167,130.5 566.5,130.5C 561.108,117.327 556.108,103.993 551.5,90.5C 551.351,89.448 551.517,88.448 552,87.5C 557.459,101.413 562.625,115.413 567.5,129.5 Z"/></g>
<g><path style="opacity:0.004" fill="#05316a" d="M 600.5,108.5 C 601.833,109.167 601.833,109.167 600.5,108.5 Z"/></g>
<g><path style="opacity:0.004" fill="#0a346a" d="M 696.5,108.5 C 697.833,109.167 697.833,109.167 696.5,108.5 Z"/></g>
<g><path style="opacity:0.004" fill="#07326c" d="M 597.5,110.5 C 597.369,109.761 597.536,109.094 598,108.5C 598.692,109.437 598.525,110.103 597.5,110.5 Z"/></g>
<g><path style="opacity:0.008" fill="#052f68" d="M 635.5,108.5 C 636.573,109.251 636.74,110.251 636,111.5C 635.517,110.552 635.351,109.552 635.5,108.5 Z"/></g>
<g><path style="opacity:0.004" fill="#0b326d" d="M 954.5,110.5 C 953.833,109.167 953.833,109.167 954.5,110.5 Z"/></g>
<g><path style="opacity:0.996" fill="#090713" d="M 960.5,39.5 C 960.833,39.5 961.167,39.5 961.5,39.5C 962.165,73.5517 961.831,92.8851 960.5,97.5C 959.167,94.1667 959.167,90.8333 960.5,87.5C 960.5,71.5 960.5,55.5 960.5,39.5 Z"/></g>
<g><path style="opacity:0.004" fill="#082f69" d="M 413.5,110.5 C 414.833,111.167 414.833,111.167 413.5,110.5 Z"/></g>
<g><path style="opacity:0.004" fill="#06306c" d="M 886.5,110.5 C 887.833,111.167 887.833,111.167 886.5,110.5 Z"/></g>
<g><path style="opacity:0.004" fill="#07306b" d="M 905.5,110.5 C 906.833,111.167 906.833,111.167 905.5,110.5 Z"/></g>
<g><path style="opacity:0.004" fill="#06316d" d="M 954.5,110.5 C 955.833,111.167 955.833,111.167 954.5,110.5 Z"/></g>
<g><path style="opacity:0.004" fill="#082f6a" d="M 513.5,111.5 C 514.833,112.167 514.833,112.167 513.5,111.5 Z"/></g>
<g><path style="opacity:0.02" fill="#0a3a7c" d="M 368.5,111.5 C 370.933,112.548 370.933,113.214 368.5,113.5C 368.5,112.833 368.5,112.167 368.5,111.5 Z"/></g>
<g><path style="opacity:0.006" fill="#09306b" d="M 888.5,112.5 C 889.525,112.897 889.692,113.563 889,114.5C 888.536,113.906 888.369,113.239 888.5,112.5 Z"/></g>
<g><path style="opacity:0.004" fill="#08306a" d="M 907.5,112.5 C 908.833,113.167 908.833,113.167 907.5,112.5 Z"/></g>
<g><path style="opacity:0.004" fill="#073070" d="M 956.5,113.5 C 957.833,114.167 957.833,114.167 956.5,113.5 Z"/></g>
<g><path style="opacity:0.004" fill="#062e68" d="M 635.5,114.5 C 636.833,115.167 636.833,115.167 635.5,114.5 Z"/></g>
<g><path style="opacity:0.98" fill="#000115" d="M 982.5,36.5 C 982.832,83.003 982.499,129.336 981.5,175.5C 981.5,129.5 981.5,83.5 981.5,37.5C 974.416,36.8745 967.75,37.5411 961.5,39.5C 961.167,39.5 960.833,39.5 960.5,39.5C 960.5,38.5 960.5,37.5 960.5,36.5C 967.833,36.5 975.167,36.5 982.5,36.5 Z"/></g>
<g><path style="opacity:0.993" fill="#010316" d="M 368.5,104.5 C 368.5,106.833 368.5,109.167 368.5,111.5C 368.5,112.167 368.5,112.833 368.5,113.5C 368.926,115.139 368.926,116.472 368.5,117.5C 353.833,117.5 339.167,117.5 324.5,117.5C 324.5,117.167 324.5,116.833 324.5,116.5C 338.677,116.829 352.677,116.496 366.5,115.5C 367.167,111.833 367.833,108.167 368.5,104.5 Z"/></g>
<g><path style="opacity:0.004" fill="#08316d" d="M 600.5,116.5 C 601.833,117.167 601.833,117.167 600.5,116.5 Z"/></g>
<g><path style="opacity:0.008" fill="#0c346c" d="M 696.5,116.5 C 697.833,117.167 697.833,117.167 696.5,116.5 Z"/></g>
<g><path style="opacity:0.125" fill="#073472" d="M 323.5,118.5 C 323.5,117.833 323.833,117.5 324.5,117.5C 339.167,117.5 353.833,117.5 368.5,117.5C 367.469,118.249 366.302,118.915 365,119.5C 351.246,118.51 337.412,118.177 323.5,118.5 Z"/></g>
<g><path style="opacity:0.006" fill="#053068" d="M 635.5,117.5 C 636.525,117.897 636.692,118.563 636,119.5C 635.536,118.906 635.369,118.239 635.5,117.5 Z"/></g>
<g><path style="opacity:0.153" fill="#063471" d="M 784.5,117.5 C 798.833,117.5 813.167,117.5 827.5,117.5C 821.766,118.186 815.933,118.852 810,119.5C 800.503,118.721 791.669,118.721 783.5,119.5C 783.328,118.508 783.662,117.842 784.5,117.5 Z"/></g>
<g><path style="opacity:0.004" fill="#06306f" d="M 457.5,118.5 C 458.833,119.167 458.833,119.167 457.5,118.5 Z"/></g>
<g><path style="opacity:0.004" fill="#023069" d="M 460.5,119.5 C 459.833,118.167 459.833,118.167 460.5,119.5 Z"/></g>
<g><path style="opacity:0.004" fill="#08306c" d="M 601.5,118.5 C 602.833,119.167 602.833,119.167 601.5,118.5 Z"/></g>
<g><path style="opacity:0.008" fill="#0a3268" d="M 61.5,119.5 C 62.5983,120.601 62.765,121.934 62,123.5C 61.51,122.207 61.3433,120.873 61.5,119.5 Z"/></g>
<g><path style="opacity:0.984" fill="#061635" d="M 443.5,176.5 C 448.833,177.167 454.167,177.833 459.5,178.5C 453.242,178.19 447.076,178.524 441,179.5C 438.767,172.948 436.267,166.615 433.5,160.5C 432.354,155.562 430.687,150.895 428.5,146.5C 426.738,139.873 424.405,133.539 421.5,127.5C 417.935,115.132 413.602,103.132 408.5,91.5C 406.738,84.8725 404.405,78.5392 401.5,72.5C 398.807,63.0605 395.807,53.7272 392.5,44.5C 392.351,43.448 392.517,42.448 393,41.5C 408.817,85.9539 424.817,130.287 441,174.5C 441.417,175.756 442.25,176.423 443.5,176.5 Z"/></g>
<g><path style="opacity:0.067" fill="#0e3b78" d="M 885.5,76.5 C 885.557,77.609 885.89,78.609 886.5,79.5C 885.314,80.7054 885.314,82.0387 886.5,83.5C 885.192,114.686 885.192,146.186 886.5,178C 885.906,178.464 885.239,178.631 884.5,178.5C 884.5,178.167 884.5,177.833 884.5,177.5C 884.168,143.663 884.502,109.996 885.5,76.5 Z"/></g>
<g><path style="opacity:0.004" fill="#042c65" d="M 155.5,120.5 C 156.833,121.167 156.833,121.167 155.5,120.5 Z"/></g>
<g><path style="opacity:0.006" fill="#042e6a" d="M 635.5,120.5 C 636.525,120.897 636.692,121.563 636,122.5C 635.536,121.906 635.369,121.239 635.5,120.5 Z"/></g>
<g><path style="opacity:0.004" fill="#0a326b" d="M 746.5,120.5 C 747.833,121.167 747.833,121.167 746.5,120.5 Z"/></g>
<g><path style="opacity:0.008" fill="#0a326d" d="M 792.5,120.5 C 793.833,121.167 793.833,121.167 792.5,120.5 Z"/></g>
<g><path style="opacity:0.008" fill="#062f69" d="M 859.5,120.5 C 860.833,121.167 860.833,121.167 859.5,120.5 Z"/></g>
<g><path style="opacity:0.008" fill="#093069" d="M 888.5,120.5 C 889.833,121.167 889.833,121.167 888.5,120.5 Z"/></g>
<g><path style="opacity:0.004" fill="#0b3468" d="M 22.5,123.5 C 21.4265,122.749 21.2599,121.749 22,120.5C 22.4828,121.448 22.6495,122.448 22.5,123.5 Z"/></g>
<g><path style="opacity:0.004" fill="#083268" d="M 602.5,121.5 C 603.833,122.167 603.833,122.167 602.5,121.5 Z"/></g>
<g><path style="opacity:0.004" fill="#0f3468" d="M 19.5,122.5 C 20.8333,123.167 20.8333,123.167 19.5,122.5 Z"/></g>
<g><path style="opacity:0.008" fill="#092f6a" d="M 915.5,122.5 C 916.833,123.167 916.833,123.167 915.5,122.5 Z"/></g>
<g><path style="opacity:0.055" fill="#0a316a" d="M 23.5,117.5 C 24.4731,119.948 24.8064,122.615 24.5,125.5C 23.5,125.167 22.8333,124.5 22.5,123.5C 23.4614,121.735 23.7947,119.735 23.5,117.5 Z"/></g>
<g><path style="opacity:0.995" fill="#011c4c" d="M 457.5,123.5 C 458.222,123.918 458.722,124.584 459,125.5C 459.813,123.564 460.313,121.564 460.5,119.5C 461.87,117.75 462.87,115.75 463.5,113.5C 464.363,112.537 465.03,112.537 465.5,113.5C 464.095,117.741 463.095,122.074 462.5,126.5C 460.604,127.466 458.604,127.799 456.5,127.5C 456.232,125.901 456.566,124.568 457.5,123.5 Z"/></g>
<g><path style="opacity:0.004" fill="#0e346a" d="M 19.5,124.5 C 20.8333,125.167 20.8333,125.167 19.5,124.5 Z"/></g>
<g><path style="opacity:0.004" fill="#053069" d="M 635.5,124.5 C 636.833,125.167 636.833,125.167 635.5,124.5 Z"/></g>
<g><path style="opacity:0.004" fill="#0c356c" d="M 696.5,124.5 C 697.833,125.167 697.833,125.167 696.5,124.5 Z"/></g>
<g><path style="opacity:0.004" fill="#08326b" d="M 886.5,125.5 C 887.833,126.167 887.833,126.167 886.5,125.5 Z"/></g>
<g><path style="opacity:0.004" fill="#0a3169" d="M 917.5,125.5 C 918.833,126.167 918.833,126.167 917.5,125.5 Z"/></g>
<g><path style="opacity:0.004" fill="#0e326c" d="M 22.5,126.5 C 23.8333,127.167 23.8333,127.167 22.5,126.5 Z"/></g>
<g><path style="opacity:0.004" fill="#093269" d="M 63.5,127.5 C 62.8333,126.167 62.8333,126.167 63.5,127.5 Z"/></g>
<g><path style="opacity:0.004" fill="#082f6c" d="M 287.5,126.5 C 288.833,127.167 288.833,127.167 287.5,126.5 Z"/></g>
<g><path style="opacity:0.004" fill="#06306c" d="M 635.5,126.5 C 636.833,127.167 636.833,127.167 635.5,126.5 Z"/></g>
<g><path style="opacity:0.004" fill="#0e346d" d="M 22.5,127.5 C 22.5,127.833 22.5,128.167 22.5,128.5C 21.8299,128.019 21.8299,127.685 22.5,127.5 Z"/></g>
<g><path style="opacity:0.008" fill="#08326c" d="M 63.5,127.5 C 64.8333,128.167 64.8333,128.167 63.5,127.5 Z"/></g>
<g><path style="opacity:0.004" fill="#06306c" d="M 421.5,127.5 C 421.103,128.525 420.437,128.692 419.5,128C 420.094,127.536 420.761,127.369 421.5,127.5 Z"/></g>
<g><path style="opacity:0.004" fill="#0a326b" d="M 917.5,127.5 C 918.833,128.167 918.833,128.167 917.5,127.5 Z"/></g>
<g><path style="opacity:1" fill="#09152f" d="M 23.5,103.5 C 24.1667,106.833 24.8333,110.167 25.5,113.5C 25.2513,120.604 25.9179,127.604 27.5,134.5C 27.5,135.167 27.1667,135.5 26.5,135.5C 24.9886,132.456 24.322,129.122 24.5,125.5C 24.8064,122.615 24.4731,119.948 23.5,117.5C 22.4868,112.807 22.4868,108.14 23.5,103.5 Z"/></g>
<g><path style="opacity:0.008" fill="#042e67" d="M 635.5,128.5 C 636.629,130.628 636.796,132.961 636,135.5C 635.503,133.19 635.337,130.857 635.5,128.5 Z"/></g>
<g><path style="opacity:0.004" fill="#0e346c" d="M 696.5,128.5 C 697.833,129.167 697.833,129.167 696.5,128.5 Z"/></g>
<g><path style="opacity:0.97" fill="#051c3d" d="M 862.5,36.5 C 862.168,82.3364 862.501,128.003 863.5,173.5C 863.5,174.5 863.5,175.5 863.5,176.5C 870.354,176.824 877.021,176.491 883.5,175.5C 883.167,142.16 883.5,108.827 884.5,75.5C 885.107,75.6236 885.44,75.9569 885.5,76.5C 884.502,109.996 884.168,143.663 884.5,177.5C 877.313,177.175 870.313,177.509 863.5,178.5C 864.231,181.031 863.731,181.031 862,178.5C 861.168,130.998 861.335,83.6649 862.5,36.5 Z"/></g>
<g><path style="opacity:0.012" fill="#08316a" d="M 888.5,128.5 C 889.833,129.167 889.833,129.167 888.5,128.5 Z"/></g>
<g><path style="opacity:0.012" fill="#0d346a" d="M 21.5,128.5 C 21.3605,130.337 20.6939,130.67 19.5,129.5C 19.9569,128.702 20.6236,128.369 21.5,128.5 Z"/></g>
<g><path style="opacity:0.004" fill="#0e346a" d="M 22.5,128.5 C 23.525,128.897 23.6917,129.563 23,130.5C 22.5357,129.906 22.369,129.239 22.5,128.5 Z"/></g>
<g><path style="opacity:0.004" fill="#0c3168" d="M 920.5,129.5 C 921.833,130.167 921.833,130.167 920.5,129.5 Z"/></g>
<g><path style="opacity:0.008" fill="#072f6b" d="M 481.5,130.5 C 482.833,131.167 482.833,131.167 481.5,130.5 Z"/></g>
<g><path style="opacity:0.008" fill="#07316b" d="M 421.5,131.5 C 422.833,132.167 422.833,132.167 421.5,131.5 Z"/></g>
<g><path style="opacity:0.909" fill="#000621" d="M 324.5,116.5 C 324.5,116.833 324.5,117.167 324.5,117.5C 323.833,117.5 323.5,117.833 323.5,118.5C 323.5,132.167 323.5,145.833 323.5,159.5C 323.5,160.167 323.833,160.5 324.5,160.5C 324.5,160.833 324.5,161.167 324.5,161.5C 323.25,161.423 322.417,160.756 322,159.5C 321.333,145.5 321.333,131.5 322,117.5C 322.671,116.748 323.504,116.414 324.5,116.5 Z"/></g>
<g><path style="opacity:0.004" fill="#0c346c" d="M 791.5,133.5 C 792.833,134.167 792.833,134.167 791.5,133.5 Z"/></g>
<g><path style="opacity:0.004" fill="#113469" d="M 19.5,134.5 C 20.8333,135.167 20.8333,135.167 19.5,134.5 Z"/></g>
<g><path style="opacity:0.008" fill="#10346b" d="M 23.5,134.5 C 24.8333,135.167 24.8333,135.167 23.5,134.5 Z"/></g>
<g><path style="opacity:0.004" fill="#103566" d="M 24.5,136.5 C 25.8333,137.167 25.8333,137.167 24.5,136.5 Z"/></g>
<g><path style="opacity:1" fill="#061330" d="M 267.5,176.5 C 268.5,176.5 269.5,176.5 270.5,176.5C 272.76,177.238 272.927,178.238 271,179.5C 257,179.144 243.167,178.144 229.5,176.5C 220.512,159.86 211.512,143.194 202.5,126.5C 202.369,125.761 202.536,125.094 203,124.5C 212.833,141.667 222.667,158.833 232.5,176C 244.162,176.5 255.829,176.667 267.5,176.5 Z"/></g>
<g><path style="opacity:0.004" fill="#072f67" d="M 423.5,136.5 C 424.833,137.167 424.833,137.167 423.5,136.5 Z"/></g>
<g><path style="opacity:0.004" fill="#06316e" d="M 499.5,136.5 C 500.833,137.167 500.833,137.167 499.5,136.5 Z"/></g>
<g><path style="opacity:0.004" fill="#042d65" d="M 635.5,136.5 C 636.833,137.167 636.833,137.167 635.5,136.5 Z"/></g>
<g><path style="opacity:0.004" fill="#07306a" d="M 859.5,136.5 C 860.833,137.167 860.833,137.167 859.5,136.5 Z"/></g>
<g><path style="opacity:0.008" fill="#073069" d="M 888.5,136.5 C 889.833,137.167 889.833,137.167 888.5,136.5 Z"/></g>
<g><path style="opacity:0.004" fill="#042d69" d="M 155.5,136.5 C 156.525,136.897 156.692,137.563 156,138.5C 155.536,137.906 155.369,137.239 155.5,136.5 Z"/></g>
<g><path style="opacity:0.004" fill="#092f6a" d="M 927.5,137.5 C 926.833,138.167 926.833,138.167 927.5,137.5 Z"/></g>
<g><path style="opacity:0.941" fill="#051533" d="M 566.5,38.5 C 575.558,60.283 584.891,81.9496 594.5,103.5C 594.707,106.241 595.707,108.574 597.5,110.5C 597.707,113.241 598.707,115.574 600.5,117.5C 600.402,119.553 601.069,121.22 602.5,122.5C 609.827,140.489 617.16,158.489 624.5,176.5C 623.833,176.5 623.167,176.5 622.5,176.5C 612.215,151.305 601.549,126.305 590.5,101.5C 582.473,81.1029 574.14,60.7696 565.5,40.5C 566.338,40.1583 566.672,39.4916 566.5,38.5 Z"/></g>
<g><path style="opacity:0.004" fill="#042f68" d="M 635.5,138.5 C 636.833,139.167 636.833,139.167 635.5,138.5 Z"/></g>
<g><path style="opacity:1" fill="#081634" d="M 27.5,134.5 C 31.1959,147.039 37.8625,157.872 47.5,167C 62.5685,177.314 79.2351,182.148 97.5,181.5C 96.8333,181.5 96.1667,181.5 95.5,181.5C 91.5,181.5 87.5,181.5 83.5,181.5C 76.3833,181.304 69.3833,180.304 62.5,178.5C 62.1667,177.167 61.8333,177.167 61.5,178.5C 55.5368,174.513 49.5368,170.513 43.5,166.5C 34.98,157.798 29.3133,147.465 26.5,135.5C 27.1667,135.5 27.5,135.167 27.5,134.5 Z"/></g>
<g><path style="opacity:0.922" fill="#061738" d="M 266.5,90.5 C 266.5,91.8333 266.5,93.1667 266.5,94.5C 260.938,107.063 251.938,116.396 239.5,122.5C 245.352,133.551 251.685,144.218 258.5,154.5C 262.488,161.806 266.488,169.14 270.5,176.5C 269.5,176.5 268.5,176.5 267.5,176.5C 267.509,174.692 267.009,173.025 266,171.5C 255.648,154.795 245.814,137.795 236.5,120.5C 252.175,114.661 262.009,103.661 266,87.5C 266.483,88.448 266.649,89.448 266.5,90.5 Z"/></g>
<g><path style="opacity:0.005" fill="#042e67" d="M 635.5,140.5 C 636.573,141.251 636.74,142.251 636,143.5C 635.517,142.552 635.351,141.552 635.5,140.5 Z"/></g>
<g><path style="opacity:0.491" fill="#04275b" d="M 637.5,36.5 C 637.833,36.5 638.167,36.5 638.5,36.5C 638.5,83.8333 638.5,131.167 638.5,178.5C 637.668,150.336 637.168,122.003 637,93.5C 636.667,95.5 636.333,97.5 636,99.5C 635.833,98 635.667,96.5 635.5,95C 635.691,92.2454 636.358,90.2454 637.5,89C 636.833,87.3333 636.167,85.6667 635.5,84C 635.801,79.5526 636.301,79.7193 637,84.5C 637.167,77 637.333,69.5 637.5,62C 637.468,54.0015 636.801,46.1682 635.5,38.5C 635.846,37.3044 636.346,37.3044 637,38.5C 637.464,37.9056 637.631,37.2389 637.5,36.5 Z"/></g>
<g><path style="opacity:0.008" fill="#082e6a" d="M 886.5,140.5 C 887.833,141.167 887.833,141.167 886.5,140.5 Z"/></g>
<g><path style="opacity:0.004" fill="#123469" d="M 25.5,142.5 C 26.8333,143.167 26.8333,143.167 25.5,142.5 Z"/></g>
<g><path style="opacity:1" fill="#051639" d="M 60.5,124.5 C 61.7069,134.27 65.2069,143.27 71,151.5C 76.1461,158.22 82.9794,161.72 91.5,162C 103.026,163.046 113.359,160.046 122.5,153C 128.064,147.605 133.397,142.105 138.5,136.5C 139.625,137.348 139.625,138.348 138.5,139.5C 131.946,147.552 124.28,154.386 115.5,160C 85.1329,170.987 66.4662,160.82 59.5,129.5C 60.4511,128.081 60.7845,126.415 60.5,124.5 Z"/></g>
<g><path style="opacity:0.004" fill="#092f6b" d="M 889.5,142.5 C 890.833,143.167 890.833,143.167 889.5,142.5 Z"/></g>
<g><path style="opacity:0.004" fill="#05326a" d="M 674.5,143.5 C 675.833,144.167 675.833,144.167 674.5,143.5 Z"/></g>
<g><path style="opacity:0.933" fill="#011c44" d="M 784.5,116.5 C 784.5,116.833 784.5,117.167 784.5,117.5C 783.662,117.842 783.328,118.508 783.5,119.5C 783.5,132.833 783.5,146.167 783.5,159.5C 804.007,159.17 824.34,159.503 844.5,160.5C 824.326,160.17 804.326,160.503 784.5,161.5C 783.25,161.423 782.417,160.756 782,159.5C 781.5,145.837 781.333,132.171 781.5,118.5C 782.222,117.449 783.222,116.782 784.5,116.5 Z"/></g>
<g><path style="opacity:0.942" fill="#021945" d="M 138.5,136.5 C 138.56,135.957 138.893,135.624 139.5,135.5C 140.188,141.052 140.854,146.552 141.5,152C 140.212,154.466 140.212,156.966 141.5,159.5C 140.972,161.336 140.306,163.003 139.5,164.5C 139.737,163.209 139.404,162.209 138.5,161.5C 138.5,154.167 138.5,146.833 138.5,139.5C 139.625,138.348 139.625,137.348 138.5,136.5 Z"/></g>
<g><path style="opacity:0.007" fill="#052f68" d="M 635.5,144.5 C 636.629,146.628 636.796,148.961 636,151.5C 635.503,149.19 635.337,146.857 635.5,144.5 Z"/></g>
<g><path style="opacity:0.004" fill="#0a316b" d="M 784.5,144.5 C 785.833,145.167 785.833,145.167 784.5,144.5 Z"/></g>
<g><path style="opacity:0.004" fill="#0b326c" d="M 792.5,144.5 C 793.833,145.167 793.833,145.167 792.5,144.5 Z"/></g>
<g><path style="opacity:0.004" fill="#083069" d="M 888.5,144.5 C 889.833,145.167 889.833,145.167 888.5,144.5 Z"/></g>
<g><path style="opacity:0.004" fill="#08326e" d="M 126.5,145.5 C 127.833,146.167 127.833,146.167 126.5,145.5 Z"/></g>
<g><path style="opacity:0.004" fill="#052d68" d="M 155.5,145.5 C 156.833,146.167 156.833,146.167 155.5,145.5 Z"/></g>
<g><path style="opacity:0.004" fill="#052f6a" d="M 499.5,145.5 C 500.833,146.167 500.833,146.167 499.5,145.5 Z"/></g>
<g><path style="opacity:0.004" fill="#09316d" d="M 932.5,144.5 C 932.631,145.239 932.464,145.906 932,146.5C 931.308,145.563 931.475,144.897 932.5,144.5 Z"/></g>
<g><path style="opacity:0.004" fill="#093068" d="M 287.5,146.5 C 288.833,147.167 288.833,147.167 287.5,146.5 Z"/></g>
<g><path style="opacity:0.008" fill="#082d66" d="M 428.5,146.5 C 427.833,147.167 427.833,147.167 428.5,146.5 Z"/></g>
<g><path style="opacity:0.004" fill="#0b316a" d="M 934.5,146.5 C 933.833,147.167 933.833,147.167 934.5,146.5 Z"/></g>
<g><path style="opacity:0.004" fill="#0c3167" d="M 212.5,148.5 C 213.833,149.167 213.833,149.167 212.5,148.5 Z"/></g>
<g><path style="opacity:0.008" fill="#0a356c" d="M 696.5,148.5 C 697.833,149.167 697.833,149.167 696.5,148.5 Z"/></g>
<g><path style="opacity:0.994" fill="#002561" d="M 781.5,118.5 C 781.333,132.171 781.5,145.837 782,159.5C 782.417,160.756 783.25,161.423 784.5,161.5C 804.167,161.5 823.833,161.5 843.5,161.5C 843.5,166.167 843.5,170.833 843.5,175.5C 842.834,171.316 842.167,166.982 841.5,162.5C 841.398,166.553 841.398,170.887 841.5,175.5C 811.978,175.361 782.311,175.361 752.5,175.5C 752.5,149.833 752.5,124.167 752.5,98.5C 753.306,99.8675 754.306,101.201 755.5,102.5C 755.154,103.696 754.654,103.696 754,102.5C 753.833,103.5 753.667,104.5 753.5,105.5C 753.851,107.553 754.184,109.219 754.5,110.5C 756.69,108.476 759.023,106.643 761.5,105C 760.747,103.513 759.914,103.346 759,104.5C 758.626,103.584 758.126,102.75 757.5,102C 758.833,101.333 758.833,100.667 757.5,100C 759.301,99.6827 759.634,99.016 758.5,98C 761.296,98.0966 763.963,98.9299 766.5,100.5C 767.656,99.4239 767.489,98.4239 766,97.5C 764.391,98.1501 762.891,97.6501 761.5,96C 762.819,94.3721 764.152,94.5387 765.5,96.5C 765.294,94.3898 766.127,92.3898 768,90.5C 769,91.5 770,92.5 771,93.5C 770.617,91.5622 770.784,89.8955 771.5,88.5C 772.167,89.1667 772.833,89.8333 773.5,90.5C 775.07,90.3062 776.57,90.3062 778,90.5C 779.487,92.272 779.82,94.272 779,96.5C 778.08,96.9302 777.247,97.2635 776.5,97.5C 779.656,100.998 780.156,104.664 778,108.5C 776.856,106.083 775.19,105.416 773,106.5C 771.899,104.606 770.566,103.939 769,104.5C 768.5,105 768,105.5 767.5,106C 767.966,107.299 767.966,108.799 767.5,110.5C 768.5,110.5 769.5,110.5 770.5,110.5C 770.738,114.099 769.738,114.433 767.5,111.5C 766.094,112.951 764.594,114.284 763,115.5C 762.581,114.328 761.915,113.328 761,112.5C 760.205,115.383 761.371,116.883 764.5,117C 762.723,119.152 761.223,118.985 760,116.5C 758.938,118.208 757.771,118.874 756.5,118.5C 758.167,119.167 759.833,119.833 761.5,120.5C 760.494,121.396 760.494,122.062 761.5,122.5C 762.167,121.5 762.833,120.5 763.5,119.5C 764.354,120.522 765.354,121.355 766.5,122C 764.956,122.29 763.623,122.956 762.5,124C 764.137,125.951 765.637,125.784 767,123.5C 767.471,121.754 768.138,120.087 769,118.5C 769.333,118.833 769.667,119.167 770,119.5C 771.067,118.809 772.234,118.309 773.5,118C 770.18,116.739 769.846,115.072 772.5,113C 772.167,112.667 771.833,112.333 771.5,112C 773.584,107.838 775.75,107.672 778,111.5C 778.333,110.833 778.667,110.167 779,109.5C 779.691,111.891 780.691,111.891 782,109.5C 781.969,112.201 780.469,113.701 777.5,114C 778.93,116.152 780.263,117.652 781.5,118.5 Z"/></g>
<g><path style="opacity:0.004" fill="#062f68" d="M 155.5,149.5 C 156.833,150.167 156.833,150.167 155.5,149.5 Z"/></g>
<g><path style="opacity:0.941" fill="#051c43" d="M 525.5,148.5 C 541.833,149.167 558.167,149.833 574.5,150.5C 557.82,150.167 541.153,150.501 524.5,151.5C 521.336,159.681 518.003,167.681 514.5,175.5C 513.903,175.265 513.57,174.765 513.5,174C 516.472,166.555 519.306,159.055 522,151.5C 522.422,149.574 523.589,148.574 525.5,148.5 Z"/></g>
<g><path style="opacity:0.016" fill="#092e6a" d="M 937.5,150.5 C 936.833,151.167 936.833,151.167 937.5,150.5 Z"/></g>
<g><path style="opacity:0.004" fill="#0e336a" d="M 30.5,151.5 C 31.8333,152.167 31.8333,152.167 30.5,151.5 Z"/></g>
<g><path style="opacity:0.999" fill="#000623" d="M 158.5,38.5 C 158.833,38.5 159.167,38.5 159.5,38.5C 159.5,84.5 159.5,130.5 159.5,176.5C 169.833,176.5 180.167,176.5 190.5,176.5C 191.492,176.328 192.158,176.662 192.5,177.5C 180.655,177.828 168.988,177.495 157.5,176.5C 158.499,130.67 158.832,84.6697 158.5,38.5 Z"/></g>
<g><path style="opacity:0.008" fill="#0a2f69" d="M 257.5,151.5 C 258.833,152.167 258.833,152.167 257.5,151.5 Z"/></g>
<g><path style="opacity:0.004" fill="#08326c" d="M 473.5,150.5 C 474.525,150.897 474.692,151.563 474,152.5C 473.536,151.906 473.369,151.239 473.5,150.5 Z"/></g>
<g><path style="opacity:0.004" fill="#0b3167" d="M 529.5,151.5 C 530.833,152.167 530.833,152.167 529.5,151.5 Z"/></g>
<g><path style="opacity:0.004" fill="#09326a" d="M 475.5,152.5 C 476.833,153.167 476.833,153.167 475.5,152.5 Z"/></g>
<g><path style="opacity:0.004" fill="#09336c" d="M 491.5,152.5 C 492.833,153.167 492.833,153.167 491.5,152.5 Z"/></g>
<g><path style="opacity:0.004" fill="#06316b" d="M 571.5,152.5 C 572.833,153.167 572.833,153.167 571.5,152.5 Z"/></g>
<g><path style="opacity:0.004" fill="#073069" d="M 859.5,152.5 C 860.525,152.897 860.692,153.563 860,154.5C 859.536,153.906 859.369,153.239 859.5,152.5 Z"/></g>
<g><path style="opacity:0.004" fill="#0a3169" d="M 258.5,153.5 C 259.833,154.167 259.833,154.167 258.5,153.5 Z"/></g>
<g><path style="opacity:0.012" fill="#06306a" d="M 616.5,153.5 C 617.833,154.167 617.833,154.167 616.5,153.5 Z"/></g>
<g><path style="opacity:0.008" fill="#07306b" d="M 574.5,155.5 C 575.833,156.167 575.833,156.167 574.5,155.5 Z"/></g>
<g><path style="opacity:0.004" fill="#0d326d" d="M 745.5,155.5 C 746.833,156.167 746.833,156.167 745.5,155.5 Z"/></g>
<g><path style="opacity:0.98" fill="#022052" d="M 193.5,124.5 C 193.83,142.674 193.497,160.674 192.5,178.5C 192.5,178.167 192.5,177.833 192.5,177.5C 192.158,176.662 191.492,176.328 190.5,176.5C 190.17,159.658 190.503,142.992 191.5,126.5C 191.333,142.837 191.5,159.17 192,175.5C 192.168,158.328 192.668,141.328 193.5,124.5 Z"/></g>
<g><path style="opacity:0.008" fill="#09326a" d="M 495.5,155.5 C 496.525,155.897 496.692,156.563 496,157.5C 495.536,156.906 495.369,156.239 495.5,155.5 Z"/></g>
<g><path style="opacity:0.004" fill="#062e67" d="M 635.5,156.5 C 636.833,157.167 636.833,157.167 635.5,156.5 Z"/></g>
<g><path style="opacity:0.004" fill="#0a356d" d="M 696.5,156.5 C 697.833,157.167 697.833,157.167 696.5,156.5 Z"/></g>
<g><path style="opacity:0.004" fill="#0a306d" d="M 470.5,157.5 C 471.833,158.167 471.833,158.167 470.5,157.5 Z"/></g>
<g><path style="opacity:0.963" fill="#041434" d="M 529.5,83.5 C 516.589,114.333 503.922,145.333 491.5,176.5C 498.167,177.167 504.833,177.833 511.5,178.5C 504.442,178.203 497.442,178.536 490.5,179.5C 487.352,178.86 487.019,177.86 489.5,176.5C 490.9,173.965 491.9,171.298 492.5,168.5C 506.739,134.344 520.739,100.01 534.5,65.5C 535.363,64.537 536.03,64.537 536.5,65.5C 533.768,71.3663 531.434,77.3663 529.5,83.5 Z"/></g>
<g><path style="opacity:0.004" fill="#08316c" d="M 574.5,157.5 C 575.833,158.167 575.833,158.167 574.5,157.5 Z"/></g>
<g><path style="opacity:0.004" fill="#0d356e" d="M 719.5,157.5 C 720.833,158.167 720.833,158.167 719.5,157.5 Z"/></g>
<g><path style="opacity:0.004" fill="#0c356d" d="M 791.5,157.5 C 792.833,158.167 792.833,158.167 791.5,157.5 Z"/></g>
<g><path style="opacity:0.004" fill="#0a2e67" d="M 431.5,158.5 C 432.833,159.167 432.833,159.167 431.5,158.5 Z"/></g>
<g><path style="opacity:0.008" fill="#052e69" d="M 635.5,158.5 C 636.833,159.167 636.833,159.167 635.5,158.5 Z"/></g>
<g><path style="opacity:0.004" fill="#103369" d="M 35.5,159.5 C 36.8333,160.167 36.8333,160.167 35.5,159.5 Z"/></g>
<g><path style="opacity:0.004" fill="#083672" d="M 99.5,159.5 C 100.833,160.167 100.833,160.167 99.5,159.5 Z"/></g>
<g><path style="opacity:0.168" fill="#0b4082" d="M 323.5,159.5 C 344.503,159.333 365.503,159.5 386.5,160C 386.833,160.333 387.167,160.667 387.5,161C 386.852,166.933 386.186,172.766 385.5,178.5C 385.5,178.167 385.5,177.833 385.5,177.5C 385.5,177.167 385.5,176.833 385.5,176.5C 385.5,176.167 385.5,175.833 385.5,175.5C 385.5,170.5 385.5,165.5 385.5,160.5C 365.167,160.5 344.833,160.5 324.5,160.5C 323.833,160.5 323.5,160.167 323.5,159.5 Z"/></g>
<g><path style="opacity:0.004" fill="#0b3269" d="M 849.5,159.5 C 850.833,160.167 850.833,160.167 849.5,159.5 Z"/></g>
<g><path style="opacity:0.991" fill="#000011" d="M 324.5,161.5 C 324.5,161.167 324.5,160.833 324.5,160.5C 344.833,160.5 365.167,160.5 385.5,160.5C 385.5,165.5 385.5,170.5 385.5,175.5C 384.514,171.03 384.181,166.363 384.5,161.5C 364.5,161.5 344.5,161.5 324.5,161.5 Z"/></g>
<g><path style="opacity:0.004" fill="#0a336c" d="M 433.5,160.5 C 432.833,161.167 432.833,161.167 433.5,160.5 Z"/></g>
<g><path style="opacity:0.004" fill="#0a2f68" d="M 888.5,160.5 C 889.833,161.167 889.833,161.167 888.5,160.5 Z"/></g>
<g><path style="opacity:0.004" fill="#09316a" d="M 939.5,160.5 C 940.833,161.167 940.833,161.167 939.5,160.5 Z"/></g>
<g><path style="opacity:0.004" fill="#0a2e69" d="M 219.5,161.5 C 220.833,162.167 220.833,162.167 219.5,161.5 Z"/></g>
<g><path style="opacity:0.004" fill="#0a3068" d="M 942.5,163.5 C 943.833,164.167 943.833,164.167 942.5,163.5 Z"/></g>
<g><path style="opacity:0.985" fill="#00041c" d="M 201.5,123.5 C 199.393,124.468 197.059,124.802 194.5,124.5C 194.167,124.5 193.833,124.5 193.5,124.5C 192.668,141.328 192.168,158.328 192,175.5C 191.5,159.17 191.333,142.837 191.5,126.5C 191.5,125.5 191.5,124.5 191.5,123.5C 194.833,123.5 198.167,123.5 201.5,123.5 Z"/></g>
<g><path style="opacity:0.006" fill="#062e66" d="M 635.5,165.5 C 636.525,165.897 636.692,166.563 636,167.5C 635.536,166.906 635.369,166.239 635.5,165.5 Z"/></g>
<g><path style="opacity:0.004" fill="#0c346b" d="M 43.5,166.5 C 42.8333,167.167 42.8333,167.167 43.5,166.5 Z"/></g>
<g><path style="opacity:0.004" fill="#0a2f68" d="M 222.5,166.5 C 223.833,167.167 223.833,167.167 222.5,166.5 Z"/></g>
<g><path style="opacity:0.008" fill="#08316b" d="M 266.5,166.5 C 267.833,167.167 267.833,167.167 266.5,166.5 Z"/></g>
<g><path style="opacity:0.008" fill="#0a3167" d="M 492.5,168.5 C 491.833,167.167 491.833,167.167 492.5,168.5 Z"/></g>
<g><path style="opacity:0.967" fill="#071635" d="M 138.5,161.5 C 139.404,162.209 139.737,163.209 139.5,164.5C 129.217,173.491 117.217,178.825 103.5,180.5C 102.127,180.657 100.793,180.49 99.5,180C 113.622,177.934 126.289,172.6 137.5,164C 138.252,163.329 138.586,162.496 138.5,161.5 Z"/></g>
<g><path style="opacity:0.004" fill="#082f67" d="M 223.5,168.5 C 224.833,169.167 224.833,169.167 223.5,168.5 Z"/></g>
<g><path style="opacity:0.008" fill="#073069" d="M 859.5,168.5 C 860.833,169.167 860.833,169.167 859.5,168.5 Z"/></g>
<g><path style="opacity:0.008" fill="#0a2f68" d="M 888.5,168.5 C 889.833,169.167 889.833,169.167 888.5,168.5 Z"/></g>
<g><path style="opacity:0.004" fill="#0b3267" d="M 950.5,168.5 C 950.631,169.239 950.464,169.906 950,170.5C 949.308,169.563 949.475,168.897 950.5,168.5 Z"/></g>
<g><path style="opacity:0.986" fill="#071432" d="M 885.5,76.5 C 910.163,109.177 934.496,142.177 958.5,175.5C 966.138,176.497 973.804,176.831 981.5,176.5C 982.833,177.167 982.833,177.833 981.5,178.5C 974.242,178.236 967.075,178.569 960,179.5C 956.363,176.216 953.196,172.549 950.5,168.5C 946.155,162.462 941.821,156.462 937.5,150.5C 936.488,149.128 935.488,147.795 934.5,146.5C 934.167,145.5 933.5,144.833 932.5,144.5C 931.567,141.63 929.9,139.296 927.5,137.5C 920.601,126.27 912.935,115.603 904.5,105.5C 900.743,99.6495 896.743,93.9829 892.5,88.5C 892.167,87.5 891.5,86.8333 890.5,86.5C 889.194,84.1838 887.861,81.8505 886.5,79.5C 885.89,78.609 885.557,77.609 885.5,76.5 Z"/></g>
<g><path style="opacity:1" fill="#08122c" d="M 525.5,148.5 C 542.5,148.5 559.5,148.5 576.5,148.5C 579.263,158.028 582.596,167.361 586.5,176.5C 586.062,176.435 585.728,176.601 585.5,177C 586.416,177.278 587.082,177.778 587.5,178.5C 587.565,178.938 587.399,179.272 587,179.5C 582.173,170.209 578.007,160.542 574.5,150.5C 558.167,149.833 541.833,149.167 525.5,148.5 Z"/></g>
<g><path style="opacity:0.008" fill="#0c3269" d="M 952.5,173.5 C 953.833,174.167 953.833,174.167 952.5,173.5 Z"/></g>
<g><path style="opacity:0.004" fill="#113566" d="M 937.5,174.5 C 938.833,175.167 938.833,175.167 937.5,174.5 Z"/></g>
<g><path style="opacity:0.983" fill="#002d6f" d="M 383.5,176.5 C 352.662,176.831 321.995,176.498 291.5,175.5C 299.167,175.5 306.833,175.5 314.5,175.5C 337.167,175.5 359.833,175.5 382.5,175.5C 382.336,172.813 382.503,170.146 383,167.5C 383.498,170.482 383.665,173.482 383.5,176.5 Z"/></g>
<g><path style="opacity:0.004" fill="#0b356b" d="M 582.5,175.5 C 583.833,176.167 583.833,176.167 582.5,175.5 Z"/></g>
<g><path style="opacity:0.008" fill="#082f64" d="M 635.5,174.5 C 636.598,175.601 636.765,176.934 636,178.5C 635.51,177.207 635.343,175.873 635.5,174.5 Z"/></g>
<g><path style="opacity:0.971" fill="#002b6c" d="M 751.5,49.5 C 752.496,65.6581 752.83,81.9915 752.5,98.5C 752.5,124.167 752.5,149.833 752.5,175.5C 782.311,175.361 811.978,175.361 841.5,175.5C 841.398,170.887 841.398,166.553 841.5,162.5C 842.167,166.982 842.834,171.316 843.5,175.5C 813.671,176.498 783.671,176.831 753.5,176.5C 752.833,176.5 752.167,176.5 751.5,176.5C 751.5,134.167 751.5,91.8333 751.5,49.5 Z"/></g>
<g><path style="opacity:0.004" fill="#0d3266" d="M 889.5,175.5 C 890.833,176.167 890.833,176.167 889.5,175.5 Z"/></g>
<g><path style="opacity:0.004" fill="#0a2d66" d="M 229.5,176.5 C 228.833,177.167 228.833,177.167 229.5,176.5 Z"/></g>
<g><path style="opacity:0.004" fill="#0b3168" d="M 283.5,176.5 C 284.833,177.167 284.833,177.167 283.5,176.5 Z"/></g>
<g><path style="opacity:0.999" fill="#01051a" d="M 443.5,176.5 C 449.167,176.5 454.833,176.5 460.5,176.5C 461.338,176.842 461.672,177.508 461.5,178.5C 460.833,178.5 460.167,178.5 459.5,178.5C 454.167,177.833 448.833,177.167 443.5,176.5 Z"/></g>
<g><path style="opacity:1" fill="#01051b" d="M 491.5,176.5 C 499.243,175.87 506.576,176.537 513.5,178.5C 512.833,178.5 512.167,178.5 511.5,178.5C 504.833,177.833 498.167,177.167 491.5,176.5 Z"/></g>
<g><path style="opacity:0.008" fill="#0d3169" d="M 579.5,176.5 C 580.833,177.167 580.833,177.167 579.5,176.5 Z"/></g>
<g><path style="opacity:0.998" fill="#01051b" d="M 586.5,176.5 C 598.5,176.5 610.5,176.5 622.5,176.5C 623.167,176.5 623.833,176.5 624.5,176.5C 624.5,176.833 624.5,177.167 624.5,177.5C 612.322,177.172 600.322,177.505 588.5,178.5C 588.167,178.5 587.833,178.5 587.5,178.5C 587.082,177.778 586.416,177.278 585.5,177C 585.728,176.601 586.062,176.435 586.5,176.5 Z"/></g>
<g><path style="opacity:0.995" fill="#050921" d="M 638.5,36.5 C 649.833,36.5 661.167,36.5 672.5,36.5C 672.5,77.5 672.5,118.5 672.5,159.5C 671.501,119.003 671.168,78.3368 671.5,37.5C 660.833,37.5 650.167,37.5 639.5,37.5C 639.5,83.8333 639.5,130.167 639.5,176.5C 669.833,176.5 700.167,176.5 730.5,176.5C 730.5,174.833 730.5,173.167 730.5,171.5C 731.482,168.038 731.815,164.371 731.5,160.5C 732.833,166.833 732.833,173.167 731.5,179.5C 716.337,178.833 701.004,178.5 685.5,178.5C 669.78,178.508 654.28,179.175 639,180.5C 638.536,179.906 638.369,179.239 638.5,178.5C 638.5,131.167 638.5,83.8333 638.5,36.5 Z"/></g>
<g><path style="opacity:0.99" fill="#000110" d="M 673.5,160.5 C 692.833,160.5 712.167,160.5 731.5,160.5C 731.815,164.371 731.482,168.038 730.5,171.5C 730.5,168.167 730.5,164.833 730.5,161.5C 711.326,161.83 692.326,161.497 673.5,160.5 Z"/></g>
<g><path style="opacity:0.004" fill="#103569" d="M 744.5,176.5 C 745.833,177.167 745.833,177.167 744.5,176.5 Z"/></g>
<g><path style="opacity:0.99" fill="#050b21" d="M 784.5,161.5 C 804.326,160.503 824.326,160.17 844.5,160.5C 844.962,166.477 845.295,172.31 845.5,178C 844.744,179.38 844.078,179.547 843.5,178.5C 813.671,177.502 783.671,177.169 753.5,177.5C 753.5,177.167 753.5,176.833 753.5,176.5C 783.671,176.831 813.671,176.498 843.5,175.5C 843.5,170.833 843.5,166.167 843.5,161.5C 823.833,161.5 804.167,161.5 784.5,161.5 Z"/></g>
<g><path style="opacity:0.917" fill="#04143a" d="M 157.5,176.5 C 168.988,177.495 180.655,177.828 192.5,177.5C 192.5,177.833 192.5,178.167 192.5,178.5C 192.631,179.239 192.464,179.906 192,180.5C 180.08,178.697 167.913,177.863 155.5,178C 156.044,177.283 156.711,176.783 157.5,176.5 Z"/></g>
<g><path style="opacity:0.004" fill="#0c356b" d="M 194.5,176.5 C 195.525,176.897 195.692,177.563 195,178.5C 194.536,177.906 194.369,177.239 194.5,176.5 Z"/></g>
<g><path style="opacity:0.909" fill="#031136" d="M 292.5,178.5 C 323.329,177.502 354.329,177.169 385.5,177.5C 385.5,177.833 385.5,178.167 385.5,178.5C 385.631,179.239 385.464,179.906 385,180.5C 354.391,178.512 323.557,177.845 292.5,178.5 Z"/></g>
<g><path style="opacity:0.9" fill="#041337" d="M 588.5,178.5 C 600.322,177.505 612.322,177.172 624.5,177.5C 625.547,178.078 625.38,178.744 624,179.5C 612.247,178.512 600.414,178.179 588.5,178.5 Z"/></g>
<g><path style="opacity:0.008" fill="#0e3066" d="M 626.5,177.5 C 627.833,178.167 627.833,178.167 626.5,177.5 Z"/></g>
<g><path style="opacity:0.915" fill="#021237" d="M 749.5,175.5 C 750.183,177.176 751.517,177.843 753.5,177.5C 783.671,177.169 813.671,177.502 843.5,178.5C 812.26,178.171 781.093,178.504 750,179.5C 748.978,178.646 748.145,177.646 747.5,176.5C 747.957,175.702 748.624,175.369 749.5,175.5 Z"/></g>
<g><path style="opacity:0.02" fill="#0d2f64" d="M 859.5,176.5 C 860.525,176.897 860.692,177.563 860,178.5C 859.536,177.906 859.369,177.239 859.5,176.5 Z"/></g>
<g><path style="opacity:0.906" fill="#031438" d="M 863.5,178.5 C 870.313,177.509 877.313,177.175 884.5,177.5C 884.5,177.833 884.5,178.167 884.5,178.5C 881.805,178.914 878.805,178.914 875.5,178.5C 872.387,178.562 869.554,179.229 867,180.5C 866.29,179.027 865.124,178.36 863.5,178.5 Z"/></g>
<g><path style="opacity:0.012" fill="#103569" d="M 61.5,178.5 C 61.8333,178.5 62.1667,178.5 62.5,178.5C 62.3147,179.17 61.9813,179.17 61.5,178.5 Z"/></g>
<g><path style="opacity:0.004" fill="#0e356a" d="M 122.5,178.5 C 123.833,179.167 123.833,179.167 122.5,178.5 Z"/></g>
<g><path style="opacity:0.004" fill="#0f3267" d="M 887.5,178.5 C 888.833,179.167 888.833,179.167 887.5,178.5 Z"/></g>
<g><path style="opacity:0.012" fill="#0b2f65" d="M 233.5,179.5 C 234.833,180.167 234.833,180.167 233.5,179.5 Z"/></g>
<g><path style="opacity:0.008" fill="#0a3066" d="M 640.5,179.5 C 644.243,179.459 644.41,180.126 641,181.5C 640.536,180.906 640.369,180.239 640.5,179.5 Z"/></g>
<g><path style="opacity:0.008" fill="#0a2e65" d="M 731.5,179.5 C 730.833,180.167 730.833,180.167 731.5,179.5 Z"/></g>
<g><path style="opacity:0.004" fill="#0b336d" d="M 791.5,179.5 C 792.833,180.167 792.833,180.167 791.5,179.5 Z"/></g>
<g><path style="opacity:0.008" fill="#0d346e" d="M 242.5,180.5 C 243.833,181.167 243.833,181.167 242.5,180.5 Z"/></g>
<g><path style="opacity:0.004" fill="#0c3369" d="M 500.5,180.5 C 501.833,181.167 501.833,181.167 500.5,180.5 Z"/></g>
<g><path style="opacity:0.004" fill="#0e356c" d="M 652.5,180.5 C 653.833,181.167 653.833,181.167 652.5,180.5 Z"/></g>
<g><path style="opacity:0.004" fill="#0b366e" d="M 697.5,181.5 C 696.833,180.167 696.833,180.167 697.5,181.5 Z"/></g>
<g><path style="opacity:0.004" fill="#0f356e" d="M 791.5,180.5 C 790.833,181.167 790.833,181.167 791.5,180.5 Z"/></g>
<g><path style="opacity:0.004" fill="#0e3168" d="M 843.5,180.5 C 844.833,181.167 844.833,181.167 843.5,180.5 Z"/></g>
<g><path style="opacity:0.008" fill="#0f3369" d="M 962.5,180.5 C 963.833,181.167 963.833,181.167 962.5,180.5 Z"/></g>
<g><path style="opacity:0.039" fill="#0b3d7d" d="M 83.5,181.5 C 87.5,181.5 91.5,181.5 95.5,181.5C 91.6086,183.703 87.6086,183.703 83.5,181.5 Z"/></g>
<g><path style="opacity:0.004" fill="#0d346e" d="M 697.5,181.5 C 698.833,182.167 698.833,182.167 697.5,181.5 Z"/></g>
<g><path style="opacity:0.004" fill="#0e356d" d="M 788.5,181.5 C 789.833,182.167 789.833,182.167 788.5,181.5 Z"/></g>
<g><path style="opacity:0.004" fill="#0d356c" d="M 74.5,182.5 C 75.8333,183.167 75.8333,183.167 74.5,182.5 Z"/></g>
<g><path style="opacity:0.004" fill="#0c306b" d="M 97.5,182.5 C 98.8333,183.167 98.8333,183.167 97.5,182.5 Z"/></g>
<g><path style="opacity:0.004" fill="#0f3368" d="M 120.5,182.5 C 121.833,183.167 121.833,183.167 120.5,182.5 Z"/></g>
<g><path style="opacity:0.004" fill="#0d336c" d="M 791.5,182.5 C 792.833,183.167 792.833,183.167 791.5,182.5 Z"/></g>
<g><path style="opacity:0.004" fill="#0d3466" d="M 863.5,182.5 C 864.833,183.167 864.833,183.167 863.5,182.5 Z"/></g>
<g><path style="opacity:0.004" fill="#0f3268" d="M 887.5,182.5 C 888.833,183.167 888.833,183.167 887.5,182.5 Z"/></g>
<g><path style="opacity:0.012" fill="#163668" d="M 979.5,182.5 C 980.833,183.167 980.833,183.167 979.5,182.5 Z"/></g>
<g><path style="opacity:0.008" fill="#0e3669" d="M 696.5,188.5 C 697.833,189.167 697.833,189.167 696.5,188.5 Z"/></g>
<g><path style="opacity:0.004" fill="#1b3761" d="M 937.5,194.5 C 938.833,195.167 938.833,195.167 937.5,194.5 Z"/></g>
<g><path style="opacity:0.004" fill="#183665" d="M 242.5,196.5 C 243.833,197.167 243.833,197.167 242.5,196.5 Z"/></g>
<g><path style="opacity:0.004" fill="#143864" d="M 696.5,196.5 C 697.833,197.167 697.833,197.167 696.5,196.5 Z"/></g>
<g><path style="opacity:0.004" fill="#153867" d="M 790.5,196.5 C 791.833,197.167 791.833,197.167 790.5,196.5 Z"/></g>
<g><path style="opacity:0.004" fill="#1b3661" d="M 384.5,200.5 C 385.833,201.167 385.833,201.167 384.5,200.5 Z"/></g>
<g><path style="opacity:0.004" fill="#18365f" d="M 475.5,200.5 C 476.833,201.167 476.833,201.167 475.5,200.5 Z"/></g>
<g><path style="opacity:0.004" fill="#183864" d="M 696.5,200.5 C 697.833,201.167 697.833,201.167 696.5,200.5 Z"/></g>
<g><path style="opacity:0.004" fill="#183a62" d="M 696.5,204.5 C 697.833,205.167 697.833,205.167 696.5,204.5 Z"/></g>
<g><path style="opacity:0.004" fill="#1a3861" d="M 745.5,210.5 C 746.833,211.167 746.833,211.167 745.5,210.5 Z"/></g>
<g><path style="opacity:0.004" fill="#1e3961" d="M 242.5,212.5 C 243.833,213.167 243.833,213.167 242.5,212.5 Z"/></g>
<g><path style="opacity:0.004" fill="#1b3a61" d="M 696.5,212.5 C 697.833,213.167 697.833,213.167 696.5,212.5 Z"/></g>
<g><path style="opacity:0.004" fill="#1c3b61" d="M 790.5,212.5 C 791.833,213.167 791.833,213.167 790.5,212.5 Z"/></g>
</svg>
